<?xml version="1.0" encoding="utf-8"?>
<!-- Generator: Adobe Illustrator 16.0.0, SVG Export Plug-In . SVG Version: 6.00 Build 0)  -->
<!DOCTYPE svg PUBLIC "-//W3C//DTD SVG 1.1//EN" "http://www.w3.org/Graphics/SVG/1.1/DTD/svg11.dtd">
<svg version="1.1" xmlns="http://www.w3.org/2000/svg" xmlns:xlink="http://www.w3.org/1999/xlink" x="0px" y="0px" width="310px"
	 height="294.7px" viewBox="0 0 310 294.7" style="enable-background:new 0 0 310 294.7;" xml:space="preserve">
<style type="text/css">
<![CDATA[
	.st0{fill:#492403;}
	.st1{fill:#494359;}
	.st2{fill:#133147;}
	.st3{display:inline;fill:#B1CB74;}
	.st4{fill:#B1CB74;}
	.st5{fill:#844506;}
	.st6{display:inline;fill:none;stroke:#000000;stroke-miterlimit:10;}
	.st7{fill:#EE5C5D;}
	.st8{display:inline;fill:#F09B5C;}
	.st9{display:inline;fill:#F8B75C;}
	.st10{fill:#211F16;}
	.st11{fill:#BFA06F;}
	.st12{display:inline;fill:#948B94;}
	.st13{fill:#F9CF00;}
	.st14{display:inline;fill:#FE9223;}
	.st15{fill:#948B94;}
	.st16{display:inline;fill:#645267;}
	.st17{fill:#2C7693;}
	.st18{fill:#FBC71C;}
	.st19{fill:#998258;}
	.st20{fill:#2E7AA0;}
	.st21{fill:#605C4A;}
	.st22{fill:#FE9223;}
	.st23{fill:#645267;}
	.st24{fill:#689E7A;}
	.st25{display:inline;}
	.st26{fill:#CDDD62;}
	.st27{fill:#343122;}
	.st28{fill:#368CC1;}
	.st29{fill:#6B5A3E;}
	.st30{display:inline;fill:none;stroke:#000000;stroke-width:1.4166;stroke-miterlimit:10;}
	.st31{fill:#3AB549;}
	.st32{display:inline;fill:#77637C;}
	.st33{fill:#711717;}
	.st34{fill:#A09A7F;}
	.st35{display:none;}
	.st36{display:inline;fill:#429267;}
	.st37{fill:#77637C;}
	.st38{display:inline;fill:#ABC4C1;}
	.st39{display:inline;fill:#494359;}
	.st40{fill:#429267;}
	.st41{display:inline;fill:#E3723E;}
]]>
</style>
<g id="bg" class="st35">
	<rect x="-395" y="-327.4" class="st38" width="1280" height="800"/>
</g>
<g id="ref" class="st35">
	
		<image style="display:inline;overflow:visible;" width="591" height="900" xlink:href="../color inspiration/1279492913601_x2YKlMV7_l.jpg"  transform="matrix(0.6227 0 0 0.6227 -783.896 -157.1821)">
	</image>
</g>
<g id="lines" class="st35">
	<polygon class="st6" points="37.8,-57.6 -89.4,-14.2 -60.4,4.2 -43.4,30.4 -75.8,43.9 25.3,108.7 124.2,89.7 210,102.6 204.9,84.8 
		278.8,90.4 300.3,54.3 364,56.7 325.9,34.1 398.1,33.5 395.2,10.3 450.9,9.7 472.5,-4.4 406,-37.4 349.2,-41.7 368,-52.7 
		301.5,-65.5 234.4,-87.5 156,-69.8 121.4,-79.6 84.2,-76.2 	"/>
	<polyline class="st6" points="-89.4,-14.2 -66.3,39.9 -60.4,4.2 	"/>
	<polyline class="st6" points="-75.8,43.9 21.5,180.1 90.1,220.6 25.3,108.7 21.5,180.1 	"/>
	<polyline class="st6" points="124.2,89.7 90.1,220.6 210,102.6 	"/>
	<polyline class="st6" points="278.8,90.4 194.5,303.1 169.3,315 254.6,88.6 	"/>
	<polyline class="st6" points="169.3,315 158.6,182.1 138,180.1 137.3,174.2 	"/>
	<polyline class="st6" points="364,56.7 307.4,158.5 319.4,55 	"/>
	<polyline class="st6" points="307.4,158.5 286.1,111.3 272,132.3 267.8,117.9 	"/>
	<polyline class="st6" points="272,132.3 288.3,80.1 286.1,111.3 	"/>
	<polyline class="st6" points="398.1,33.5 372.6,111.3 358,67.5 	"/>
	<line class="st6" x1="379.9" y1="33.7" x2="372.6" y2="111.3"/>
	<polyline class="st6" points="450.9,9.7 450.9,33.7 472.5,-4.4 	"/>
	<polyline class="st6" points="450.9,33.7 420.8,29.7 398.1,51.2 393.9,46.3 	"/>
	<polyline class="st6" points="395.2,10.3 420.8,29.7 420.8,10 	"/>
	<line class="st6" x1="368" y1="-52.7" x2="366.2" y2="-40.4"/>
	<line class="st6" x1="156.6" y1="155.2" x2="150.3" y2="93.6"/>
	<polyline class="st6" points="63.4,174.5 65.2,123 90.1,220.6 	"/>
	<polyline class="st6" points="158.6,182.1 150.3,168 138,180.1 	"/>
	<polygon class="st6" points="189.4,261.7 187.3,195.4 195.2,245.6 216.4,247.7 210.9,261.7 	"/>
	<polyline class="st6" points="38.7,-46.8 37.8,-57.6 65.2,-46.6 38.7,-46.8 7.2,-47.1 	"/>
	<path class="st6" d="M194.5,51.2c-2.7-10.3,3.2-25.1,3.2-25.1c-9.1,4.5-10.3,25.4-10.3,25.4c-8.9-37.9-18.1-31.2-18.1-31.2
		C180,22.4,181.2,55,181.2,55S195.5,55,194.5,51.2z"/>
	<path class="st6" d="M220.5,50.8c-2.8-11.4,4.5-13.2,4.5-13.2c-9.9-1.2-9.1,13.2-9.1,13.2S220.9,52.5,220.5,50.8z"/>
	<path class="st6" d="M10.1,6.4C6.9-11.2-1-9.6-1-9.6C6.4-8.8,7.2,8.9,7.2,8.9S10.4,8.2,10.1,6.4z"/>
	<polyline class="st6" points="295.6,132.3 263,220.6 237.2,195.4 	"/>
	<line class="st6" x1="253.1" y1="155.2" x2="263" y2="220.6"/>
	<polyline class="st6" points="-19.2,123 -27.6,187.9 7.2,160 	"/>
	<line class="st6" x1="-27.6" y1="187.9" x2="12.9" y2="168"/>
	<polyline class="st6" points="63.4,204.8 102.6,345.7 138,297.7 237.2,363.7 253.1,211 	"/>
	<polyline class="st6" points="102.6,345.7 153.3,330.7 237.2,363.7 	"/>
	<polyline class="st6" points="123.3,187.9 138,297.7 153.3,330.7 	"/>
	<polyline class="st6" points="365.1,88.6 329.1,267.7 270.2,201 	"/>
	<line class="st6" x1="320.9" y1="134.3" x2="329.1" y2="267.7"/>
	<polyline class="st6" points="348.5,126.9 354.3,142.3 338.6,132.3 358.4,121.6 	"/>
	<polyline class="st6" points="24.9,182.1 33.3,214.3 58.2,201.8 	"/>
	<path class="st6" d="M33.3,214.3"/>
	<line class="st6" x1="15.6" y1="171.8" x2="33.3" y2="214.3"/>
	<polyline class="st6" points="282,214.3 245,435.7 197.7,348.2 	"/>
	<line class="st6" x1="295.6" y1="229.7" x2="245" y2="435.7"/>
	<polyline class="st6" points="234.5,416.3 250.1,405.4 252.2,406.3 	"/>
	<polyline class="st6" points="431.5,31.1 414.5,61.1 392,52.1 	"/>
	<line class="st6" x1="414.5" y1="61.1" x2="389" y2="61.1"/>
	<polygon class="st6" points="-39.6,67.1 24.9,55 -19.1,80.2 -19.5,93.6 	"/>
	<polyline class="st6" points="84.3,259.3 80.8,267.4 90,259.3 78.6,259.3 	"/>
	<path class="st6" d="M-5.2,55.5c0,0,0.8,0.3,2,0s-5.6-13.7,0.4-16.4C-2.9,39.2-10.7,41.1-5.2,55.5z"/>
	<path class="st6" d="M-1.7,57.1c0,0-0.8,0.3-2,0c-1.2-0.3,5.6-13.7-0.4-16.4C-4.1,40.8,3.8,42.7-1.7,57.1z"/>
	<path class="st30" d="M-8.6,56.9c0,0-0.2,0.7,1.5,0.6c1.7-0.1-3.1-20.8,6.1-22.4C-1,35.2-11.2,35.2-8.6,56.9z"/>
	<polyline class="st6" points="335.3,100.6 342,96.3 335.7,76 335.1,108.7 	"/>
	<polyline class="st6" points="148.7,-67.2 149.4,-71.7 142.7,-65 156,-69.8 	"/>
	<path class="st6" d="M302.8,195.4c0,0-5.2,6.9,5.3,27.4c0,0-7.8-15.3-3.3-26.5C304.9,196.3,304.8,194.2,302.8,195.4z"/>
	<path class="st6" d="M268,342.3c0,0,7,4.8,2.3,21.4c0,0,6.8-18.9-1.6-24.5"/>
	<path class="st6" d="M111.3,217.6c0,0-4,2.9-2,10.9c0,0-0.3-8.6,2.8-9.9C112.1,218.6,112.1,217.2,111.3,217.6z"/>
	<path class="st6" d="M114,224.6c0,0-1.3,1.7,3.2,15.7c0,0-2.7-14-1.7-15.7C115.5,224.6,114.2,223.5,114,224.6z"/>
	<path class="st6" d="M-52.3,72.6c0,0-5,4.9-2,17.1c0,0-1.3-14.4,4-15.4C-50.3,74.3-50,71.8-52.3,72.6z"/>
	<path class="st6" d="M393.9,61.1c0,0,9.2,44.5,4.2,55c0,0,6.5-27.4-1-55"/>
	<polygon class="st6" points="354.5,-26.4 372.6,-58.4 392,-62.4 411.7,-68.4 429,-42.9 422.4,-16.4 379,-7.4 366.2,-18.9 	"/>
	<line class="st6" x1="400.7" y1="-52.7" x2="385" y2="-42.4"/>
	<polyline class="st6" points="429,-42.9 412.7,-42.4 411.7,-68.4 400.7,-52.7 372.6,-58.4 	"/>
	<polyline class="st6" points="354.5,-26.4 385,-42.4 422.4,-16.4 412.7,-42.4 400.7,-52.7 	"/>
	<polyline class="st6" points="412.7,-42.4 385,-42.4 379,-7.4 	"/>
	<line class="st6" x1="381.7" y1="-23.3" x2="366.2" y2="-18.9"/>
</g>
<g id="newpaint">
	<g id="XMLID_2_">
		<g>
			<g>
				<polygon class="st15" points="309.8,52 297.9,73 297.9,59.7 				"/>
				<path class="st4" d="M281.3,59.9l-14.1,0.2l1.6,12.8l-10,0.1L229,73.2l21,12.5l-24.6-0.9l-10.5-0.4l-8,13.4l-3.9,6.5l-13.3-1
					l-27.4-2l2.8,9.8l-32.9-4.9l-14.4-2.1l-54.5,10.4L38.9,98.6l24.2-13.9l-35.5,6.6L7.7,78.6l5.2-2.2l12.6-5.2l-9.4-14.5l-16-10.1
					l53.2-18.2h0l17.4,0.2l14.6,0.1l-15.1-6.1l25.5-10.3l20.5-1.9l15.4,4.4l-3.7,3.7l3.3-1.2l4-1.4l43.2-9.8l36.9,12.1l36.6,7.1
					l-10.3,6.1l7.4,0.6l-4.5,7.9l6.4,4.1l7.1,6.3l23.9-5l1.6-6.3l26,12.9l-11.9,7.8L281.3,59.9z M173.4,75.1c-5.4-0.6-5,7.3-5,7.3
					s2.7,0.9,2.5,0C169.4,76.2,173.4,75.1,173.4,75.1z M149.3,84.7c0,0,7.9,0,7.3-2.1c-1.5-5.7,1.8-13.8,1.8-13.8
					c-5,2.5-5.7,14-5.7,14c-4.9-20.9-10-17.2-10-17.2C148.6,66.8,149.3,84.7,149.3,84.7z M53.4,59.3c0,0,1.8-0.4,1.6-1.4
					c-1.8-9.7-6.1-8.8-6.1-8.8C52.9,49.5,53.4,59.3,53.4,59.3z M48.5,85.9c3-8-1.3-9-1.3-9l-0.2-0.1c0.2-0.3,0.5-0.6,0.9-0.7
					c0,0-1.3,0.3-2,1.9c0.3-2.1,1.2-3.8,3-4.1c0,0-5.6,0-4.2,12c0,0-0.1,0.4,0.8,0.3c0.4,0,0.2-1.9,0.1-4.1c0.2,0.9,0.4,1.9,0.9,3
					c0,0,0.4,0.1,0.9,0c-0.1,0.5-0.2,0.8,0,0.8C48,86.1,48.5,85.9,48.5,85.9z"/>
				<polygon class="st23" points="297.9,59.7 297.9,73 287.2,71.5 281.3,70.8 281.3,59.9 				"/>
				<polygon class="st15" points="287.2,71.5 277.9,88.1 265.5,83.1 266.5,79.9 268.8,82.6 281.3,70.8 				"/>
				<polygon class="st23" points="276.4,16.7 285.9,30.8 276.9,31.1 				"/>
				<polygon class="st15" points="285.9,30.8 283.8,39.1 279,36.7 276.9,31.1 				"/>
				<polygon class="st15" points="279,36.7 283.8,39.1 282.2,45.4 				"/>
				<polygon class="st23" points="279,36.7 282.2,45.4 264.6,33.1 273.2,33.8 				"/>
				<polygon class="st15" points="282.2,45.4 258.3,50.3 259.8,41.6 261.3,32.9 264.6,33.1 				"/>
				<polygon class="st1" points="281.3,59.9 281.3,70.8 267.2,60.1 				"/>
				<polygon class="st37" points="281.3,70.8 268.8,82.6 266.5,79.9 268.8,72.9 267.2,60.1 				"/>
				<polygon class="st23" points="279,36.7 273.2,33.8 264.6,33.1 261.6,31.1 276.9,31.1 				"/>
				<polygon class="st1" points="277.9,88.1 268.3,88.1 266.5,88.1 263.8,88.1 265.5,83.1 				"/>
				<polygon class="st15" points="276.4,16.7 276.9,31.1 270.3,25.4 				"/>
				<polygon class="st23" points="276.9,31.1 261.6,31.1 270.3,25.4 				"/>
				<polygon class="st23" points="276.4,16.7 270.3,25.4 254.8,22.2 265.5,20 				"/>
				<polygon class="st37" points="270.3,25.4 261.6,31.1 258.5,32.7 251.2,32.1 251.9,27.3 254.8,22.2 				"/>
				<path class="st40" d="M268.3,88.1c2.7,10,2.1,20,1.4,25.6c0.3-9.1-3.1-25.6-3.1-25.6H268.3z"/>
				<polygon class="st15" points="268.8,72.9 266.5,79.9 265.5,83.1 263.8,88.1 254.8,115.8 258.8,73 				"/>
				<polygon class="st15" points="264.6,33.1 261.3,32.9 261.6,31.1 				"/>
				<polygon class="st1" points="261.6,31.1 261.3,32.9 258.5,32.7 				"/>
				<polygon class="st1" points="261.3,32.9 259.8,41.6 251.2,44 244.8,39.9 258.5,32.7 				"/>
				<polygon class="st1" points="259.8,41.6 258.3,50.3 251.2,44 				"/>
				<polygon class="st1" points="258.8,73 254.8,115.8 250.6,103.2 250.6,103.2 246.7,91.6 250,85.7 229,73.2 				"/>
				<polygon class="st37" points="258.5,32.7 244.8,39.9 249.3,32 251.2,32.1 				"/>
				<polygon class="st1" points="252.2,25.4 251.9,27.3 249.3,32 241.9,31.4 				"/>
				<polygon class="st37" points="251.9,27.3 251.2,32.1 249.3,32 				"/>
				<polygon class="st23" points="250.6,103.2 250.6,103.2 247,121.4 247,121.4 241.5,124.4 236,127.3 244.7,132.8 244.7,132.8 
					230.8,202 226.3,128.4 234.1,114.3 237.9,107.5 246.7,91.6 				"/>
				<polygon class="st15" points="250,85.7 246.7,91.6 237.9,107.5 234.4,96.3 234.1,114.3 226.3,128.4 218.9,141.8 225.4,84.7 				
					"/>
				<polygon class="st1" points="241.5,124.4 244.7,132.8 236,127.3 				"/>
				<polygon class="st1" points="237.9,107.5 234.1,114.3 234.4,96.3 				"/>
				<path class="st37" d="M219.2,177.1c-0.5-1.1-4-8.8-1.8-14.5c0,0,0-1.1-1.1-0.5C216.3,162.1,213.5,165.9,219.2,177.1z
					 M226.3,128.4l4.5,73.5L212.3,181l-7.5-8.5l-6.5-7.3l14-37.9l6.5,14.5L226.3,128.4z"/>
				<polygon class="st37" points="225.4,84.7 218.9,141.8 212.3,127.3 212.3,127.3 207.1,115.8 208.3,98.6 206.9,97.7 214.9,84.3 
									"/>
				<path class="st40" d="M216.3,162.1c1.1-0.7,1.1,0.5,1.1,0.5c-2.3,5.7,1.2,13.4,1.8,14.5C213.5,165.9,216.3,162.1,216.3,162.1z"
					/>
				<polygon class="st15" points="204.8,172.5 212.3,181 197.5,241.4 197.1,243.1 188.4,278.3 187.2,277.9 				"/>
				<polygon class="st23" points="212.3,127.3 212.3,127.3 198.4,165.2 194.4,176 188.9,139.9 197,119.4 199.3,127.3 207.1,115.8 
									"/>
				<polygon class="st1" points="208.3,98.6 207.1,115.8 199.3,127.3 				"/>
				<polygon class="st37" points="208.3,98.6 199.3,127.3 197,119.4 203.1,104.2 206.9,97.7 				"/>
				<polygon class="st1" points="198.4,165.2 204.8,172.5 187.2,277.9 178.7,283.8 158.4,246.3 180.1,254.9 188.9,170.7 194.4,176 
									"/>
				<polygon class="st15" points="203.1,104.2 197,119.4 188.9,139.9 180.1,162.1 168.7,191 157.1,189.8 189.8,103.2 				"/>
				<path class="st24" d="M198.4,254.9c2.5-9.1-1.3-11.8-1.3-11.8l0.4-1.7C202,244.4,198.5,254.5,198.4,254.9z"/>
				<polygon class="st1" points="188.9,139.9 194.4,176 188.9,170.7 180.1,162.1 				"/>
				<polygon class="st37" points="189.8,103.2 157.1,189.8 157,189.8 152.6,162.1 153.8,198.6 142.7,228 136.8,154.7 132.3,147 
					125.5,153.7 125.1,150.4 135.7,139.9 165.2,111 162.3,101.2 				"/>
				<polygon class="st23" points="180.1,162.1 188.9,170.7 180.1,254.9 141.8,229.4 142.7,228 156.6,221.5 165.7,198.6 168.7,191 
									"/>
				<polygon class="st1" points="180.1,254.9 158.4,246.3 158.4,246.3 133.9,236.7 125.5,218.5 141.8,229.4 				"/>
				<path class="st40" d="M168.4,82.4c0,0-0.5-7.9,5-7.3c0,0-4,1-2.5,7.3C171.2,83.4,168.4,82.4,168.4,82.4z"/>
				<polygon class="st1" points="168.7,191 165.7,198.6 153.8,198.6 157.1,189.8 				"/>
				<polygon class="st15" points="165.7,198.6 156.6,221.5 142.7,228 153.8,198.6 				"/>
				<polygon class="st15" points="165.2,111 135.7,139.9 132.3,106 				"/>
				<polygon class="st1" points="157.1,189.8 153.8,198.6 152.6,162.1 157,189.8 				"/>
				<path class="st40" d="M156.6,82.7c0.5,2.1-7.3,2.1-7.3,2.1s-0.7-18-6.6-19.1c0,0,5.1-3.7,10,17.2c0,0,0.7-11.5,5.7-14
					C158.4,68.8,155.1,77,156.6,82.7z"/>
				<polygon class="st23" points="136.8,154.7 142.7,228 141.8,229.4 125.5,218.5 117.4,158 125.1,150.4 125.5,153.7 				"/>
				<polygon class="st1" points="132.3,147 136.8,154.7 125.5,153.7 				"/>
				<polygon class="st37" points="135.7,139.9 125.1,150.4 117.4,158 99.1,176 117.9,103.9 132.3,106 				"/>
				<polygon class="st1" points="125.5,218.5 133.9,236.7 106,244.9 				"/>
				<polygon class="st1" points="131.7,14.9 131.4,17.4 128.1,18.6 				"/>
				<path class="st15" d="M114,186.8c-0.1-0.4-1.5-7.7-0.9-8.6c0,0-0.7-0.6-0.8,0C112.3,178.2,111.5,179.1,114,186.8z M117.4,158
					l8.1,60.5L106,244.9l-12-43.2l5.1-4.4h-3.2h-3.2l-8.4-30l14.7,8.7L117.4,158z M111.2,174.9c0,0,0-0.8-0.4-0.6c0,0-2.2,1.6-1.1,6
					C109.7,180.4,109.5,175.7,111.2,174.9z"/>
				<polygon class="st15" points="117.9,103.9 99.1,176 85.3,122.2 84.4,150.6 63.4,114.3 				"/>
				<path class="st40" d="M113.1,178.2c-0.5,0.9,0.8,8.2,0.9,8.6c-2.5-7.7-1.7-8.6-1.7-8.6C112.4,177.6,113.1,178.2,113.1,178.2z"/>
				<path class="st40" d="M110.8,174.4c0.4-0.2,0.4,0.6,0.4,0.6c-1.7,0.8-1.5,5.5-1.5,5.5C108.6,175.9,110.8,174.4,110.8,174.4z"/>
				<polygon class="st1" points="85.3,122.2 99.1,176 84.4,150.6 84.4,150.6 				"/>
				<polygon class="st37" points="84.4,150.6 99.1,176 84.4,167.3 81.5,165.6 63.1,154.7 61.3,153.7 63.4,114.3 84.4,150.6 				"/>
				<polygon class="st1" points="99,197.3 94,201.8 95.9,197.3 				"/>
				<polygon class="st1" points="85.3,28.8 70.7,28.6 70.3,22.7 				"/>
				<polygon class="st23" points="81.5,165.6 67.8,172.5 63.1,154.7 				"/>
				<polygon class="st1" points="63.1,154.7 67.8,172.5 58,149.1 61.3,153.7 				"/>
				<path class="st23" d="M63.4,114.3l-2.1,39.3l-3.2-4.5l-1.5-2.1l-3.1-4.4l-14.6-20.4L20.4,96.4c0.3-0.5,0.7-0.9,1.3-1
					c0,0,0.2-1.4-1.1-0.9c0,0-0.4,0.4-0.8,1.2l-12.2-17l19.9,12.8v0L38.7,106l0.2-7.4L63.4,114.3z"/>
				<polygon class="st1" points="63.1,84.7 38.9,98.6 27.6,91.4 27.6,91.4 				"/>
				<polygon class="st1" points="56.5,147 34.2,158 53.4,142.6 				"/>
				<path class="st24" d="M55,57.9c0.2,1-1.6,1.4-1.6,1.4s-0.4-9.7-4.5-10.2C48.9,49.1,53.2,48.2,55,57.9z"/>
				<polygon class="st37" points="38.8,122.2 53.4,142.6 34.2,158 				"/>
				<path class="st40" d="M47.2,76.9c0,0,4.3,1,1.3,9c0,0-0.5,0.2-1.1,0c-0.1,0-0.1-0.3,0-0.8c0.1,0,0.1,0,0.2,0
					c0.1,0,0.1-0.3,0-0.7C48.3,82,49.5,77.9,47.2,76.9z"/>
				<path class="st40" d="M47.6,84.3c0.1,0.4,0.1,0.7,0,0.7c-0.1,0-0.1,0-0.2,0C47.5,84.9,47.6,84.6,47.6,84.3z"/>
				<path class="st4" d="M47.2,76.9c2.4,1,1.1,5.1,0.5,7.4c-0.4-1.6-2-5.7-0.7-7.6L47.2,76.9z"/>
				<path class="st40" d="M47.6,84.3c-0.1,0.3-0.1,0.5-0.2,0.7c-0.5,0.1-0.9,0-0.9,0c-0.4-1.1-0.7-2.1-0.9-3v0c0-1.3,0-2.8,0.2-4.1
					c0.7-1.6,2-1.9,2-1.9c-0.4,0.2-0.7,0.4-0.9,0.7C45.7,78.6,47.2,82.7,47.6,84.3z"/>
				<path class="st40" d="M48.9,73.8c-1.8,0.3-2.7,2-3,4.1c-0.4,0.9-0.6,2.2-0.2,4.1v0c0,2.3,0.2,4.1-0.1,4.1
					c-0.9,0-0.8-0.3-0.8-0.3C43.2,73.8,48.9,73.8,48.9,73.8z"/>
				<path class="st40" d="M45.9,77.9c-0.2,1.3-0.2,2.8-0.2,4.1C45.3,80.1,45.5,78.8,45.9,77.9z"/>
				<polygon class="st1" points="38.9,98.6 38.7,106 27.6,91.4 				"/>
				<polygon class="st1" points="16.1,56.7 25.5,71.2 12.9,76.4 				"/>
				<path class="st40" d="M20.6,94.4c1.3-0.4,1.1,0.9,1.1,0.9c-0.6,0.1-1,0.5-1.3,1l-0.6-0.8C20.2,94.8,20.6,94.4,20.6,94.4z"/>
				<path class="st40" d="M19.8,95.6l0.6,0.8c-1.4,2.3-0.9,7.5-0.9,7.5C18.4,99.6,19.1,97,19.8,95.6z"/>
				<polygon class="st23" points="16.1,56.7 12.9,76.4 0.1,46.6 				"/>
			</g>
		</g>
	</g>
</g>
<g id="man">
	<g>
		<g id="XMLID_4_">
			<g>
				<path class="st5" d="M304.8,77.4c3.6,12.5,0.1,7.4,0.1,7.4c-4.3-8-1.5-7.6-1.5-7.6C304,78,304.8,77.4,304.8,77.4z"/>
				<path class="st2" d="M298.9,54.6c0.4,0.5,9.6,11.2,2.2,23.7c-0.1,0.1-0.1,0.2-0.2,0.2c-0.4,0.2-0.9,0-1.2-0.1
					c-0.1-0.1-0.2-0.1-0.2-0.1c2.1-5.7,1.4-10,1.4-10c-1.4-10.9-9.1-11.8-9.1-11.8c-2.2-0.5-2.4-5.4-2.4-5.6
					c0.1,0.1,0.1,0.2,0.2,0.3c0,0,5.9,1.2,9.7,0.7c0.9-0.1,1.7-0.3,2.3-0.6c0,0,8.9,5.3,3.5,24.8c0,0-0.1,0.1-0.3,0.1
					c-0.3,0.1-0.8,0.2-1.3,0c-0.1,0-0.2-0.1-0.3-0.1C303.3,76.1,308.2,63.5,298.9,54.6z"/>
				<path class="st18" d="M304.8,76.2v1.2c0,0-0.8,0.6-1.4-0.2l0.2-1C304,76.4,304.5,76.3,304.8,76.2z"/>
				<path class="st7" d="M303.2,13.1c0,0,1.3-0.1,0.4,1.5c0,0-0.6,1-1.6,1.7l-1.1-3.6c0,0,0.3,0.1,0.6,0.2c0.2,0.8,0.6,1.3,1.3,0.8
					C303,13.5,303.1,13.3,303.2,13.1C303.2,13.1,303.2,13.1,303.2,13.1z"/>
				<path d="M302.7,10.6c0.2,0.6,0.6,1.7,0.4,2.5c-0.2,0-0.4,0-0.6,0c0.1-0.2,0.1-0.4,0.1-0.5c-0.1-0.5-0.2-0.9-0.3-1.3
					c-0.1-0.4-0.2-0.9-0.4-1.2c-0.2-0.3-0.6-0.3-0.9-0.2c0,0,0,0,0,0c0,0,0-0.1,0-0.1c0-0.1-0.1-0.2-0.2-0.1
					c-0.1,0.1-0.2,0.1-0.3,0.2c-0.1-0.1-0.1-0.3,0-0.3C301.7,9,302.4,9.6,302.7,10.6z"/>
				<path class="st7" d="M302.6,13.1c0.2,0,0.4,0,0.6,0c-0.1,0.3-0.2,0.5-0.4,0.6c-0.7,0.5-1,0-1.3-0.8c0.1,0,0.3,0.1,0.5,0.1
					c0,0.1,0.1,0.2,0.1,0.3C302.3,13.6,302.5,13.4,302.6,13.1z"/>
				<path class="st7" d="M302.5,17.7c0.6,1.9-1.5,4.5-3.4,5.1l-0.9,0.4h-6.3c2.3,0,0.9-2.5,0.9-2.5c1.2-1.4-0.8-1.9-0.9-2
					c0.9-0.4,1.5-1.4,1.5-2.5c0-0.3-0.1-0.6-0.2-0.9c0.2-0.4,0.2-1,0.2-1.4c0.4-0.2,0.8-0.4,0.9-0.5c0.6-0.3,1.5-0.7,2.1-1.2
					c-0.1,0.2-0.1,0.3-0.1,0.6c0,0,0.1,1.4,1.2,1.7c0.1,0.1,0.1,0.2,0.2,0.3c0.8,0.9,2.3,0.6,2.8-0.5c0.4-1,0.1-2.5-0.4-3.5
					c-0.1-0.1-0.1-0.2-0.2-0.3c0.1,0,0.2,0,0.3,0l0.7,2.1c0,0,0,0,0,0l1.1,3.6L302.5,17.7z"/>
				<path class="st28" d="M302.4,39.2c0,0,0.5,5.5,0,11c0,0.5-0.3,0.9-0.8,1.2c-0.6,0.3-1.3,0.5-2.3,0.6c0.9-9.2-1.2-19.6-1.8-22.3
					h0.2c0.3,0.6,0.6,1.4,0.8,2c0,0,0.9-1.3,0.9-2C299.3,29.7,302.3,32.8,302.4,39.2z"/>
				<path class="st7" d="M302.6,13.1c-0.1,0.3-0.3,0.5-0.5,0.2c0-0.1-0.1-0.2-0.1-0.3C302.2,13,302.4,13.1,302.6,13.1z"/>
				<path class="st5" d="M300.9,79.5c3.6,12.5,0.1,7.4,0.1,7.4c-4.3-8-1.5-7.6-1.5-7.6C300.1,80.1,300.9,79.5,300.9,79.5z"/>
				<path d="M301.1,9.8c0.8,0.7,0.5,2.2,0.9,3.1c-0.2,0-0.3-0.1-0.5-0.1c-0.3-0.9-0.4-2.3-0.6-2.8C301,10,301,9.9,301.1,9.8
					C301,9.8,301.1,9.8,301.1,9.8z"/>
				<path d="M301,9.8C301.1,9.8,301.1,9.8,301,9.8C301.1,9.8,301,9.8,301,9.8C301,9.8,301,9.8,301,9.8z"/>
				<path d="M301.1,9.7C301.1,9.8,301,9.8,301.1,9.7C301,9.8,301,9.8,301.1,9.7c-0.2,0-0.3,0-0.3,0.1c0,0,0,0-0.1,0
					c-0.1,0-0.1,0-0.1,0c0.1-0.1,0.2-0.2,0.3-0.2C301,9.6,301.1,9.7,301.1,9.7z"/>
				<path d="M301,9.8C301,9.8,301,9.8,301,9.8C301,9.8,301,9.8,301,9.8c0,0.1-0.1,0.1-0.2,0.1C300.8,9.8,300.9,9.7,301,9.8z"/>
				<path d="M301,9.8c0,0.1-0.1,0.2-0.1,0.3c0-0.1-0.1-0.1-0.1-0.1c0,0,0-0.1,0-0.1C300.9,9.9,301,9.9,301,9.8z"/>
				<path d="M300.9,10.1c-0.1,0.1-0.2,0.2-0.4,0.3c-0.1,0.1-0.2,0.1-0.3,0.1l-0.1-0.3c0.1,0,0.3-0.1,0.4-0.2c0,0,0.1-0.1,0.1-0.1
					c0,0,0.1,0,0.1,0c0,0,0,0,0.1,0c0,0,0,0.1,0,0.1C300.8,10,300.9,10,300.9,10.1z"/>
				<path class="st18" d="M300.9,78.5v1c0,0-0.8,0.6-1.4-0.2l0.2-0.9C300,78.5,300.5,78.7,300.9,78.5z"/>
				<path d="M300.1,10.8c0.5,0.9,0.8,2.5,0.4,3.5c-0.5,1.1-1.9,1.4-2.8,0.5c-0.1-0.1-0.2-0.2-0.2-0.3c0.1,0,0.2,0,0.3,0
					c0,0,0.1,0,0.2,0c0.1,0.1,0.2,0.3,0.4,0.3c0.6,0.3,1.5,0,1.7-0.7c0.2-0.9,0-2.2-0.5-3c-0.4-0.8-0.9-0.4-1.5-0.2
					c-0.3,0.1-0.6,0.2-0.8,0.3c0.1-0.1,0.1-0.3,0.2-0.4c0-0.1,0-0.2-0.1-0.2c0.8-0.4,1.7-0.9,2.4-0.4c-0.1,0.1-0.1,0.2,0.1,0.2
					c0.1,0,0.1,0,0.2,0C300,10.6,300,10.7,300.1,10.8z"/>
				<path d="M300.1,10.2l0.1,0.3c-0.1,0-0.2,0-0.3,0c-0.1-0.1-0.2-0.2-0.3-0.3c0,0,0.1-0.1,0.2-0.1C299.9,10.2,300,10.2,300.1,10.2z
					"/>
				<path class="st7" d="M299.2,7.3l0.9,2.9c-0.1,0-0.2,0-0.3,0c-0.1,0-0.1,0-0.2,0.1c-0.7-0.5-1.6,0-2.4,0.4c-0.1,0-0.2,0-0.2,0.1
					c0,0,0,0,0,0c0,0-0.1,0-0.1,0c-0.2,0.1-0.2,0.3-0.2,0.4c0,0,0,0,0,0c0,0,0,0,0,0c-0.6,0.7-1.7,1.1-2.4,1.5
					c-0.2,0.1-0.4,0.2-0.6,0.3c0.9-1.3-0.5-3.3-0.5-3.3c0.8-1.5-0.6-2.9-0.6-2.9c1.7-0.3,2-1.5,2-1.5s1.7,0.3,2.2-1c0,0,0,0,0,0
					c0,0,0,0,0.1,0c0,0,0,0,0,0C297.9,4.9,298.8,6.1,299.2,7.3z"/>
				<path class="st7" d="M299.5,11.1c0.4,0.8,0.7,2.1,0.5,3c-0.2,0.7-1,1-1.7,0.7c-0.2-0.1-0.3-0.2-0.4-0.3c0.2-0.1,0.5-0.3,0.5-1
					c0,0-0.1-1.1-0.7-1.5c0,0-0.2-0.2-0.5-0.4c0-0.1-0.1-0.3-0.2-0.4c0,0,0,0,0-0.1c0.3-0.1,0.6-0.2,0.8-0.3
					C298.6,10.7,299.1,10.4,299.5,11.1z"/>
				<path d="M299.9,10.5c-0.1,0-0.1,0-0.2,0c-0.1,0-0.1-0.2-0.1-0.2C299.7,10.3,299.8,10.4,299.9,10.5z"/>
				<path class="st28" d="M289.4,50.9c-0.4-0.8-0.7-2.3-0.9-3.9c0.9-1.8,3-9.1,3.2-9.8c-1.1,3.4-2.3,6.2-3.4,8.5
					c-0.3-2.6-0.5-5-0.5-5c0-0.3,0-0.6,0-0.9c0-8,4-10.7,4-10.7v0.7h0.8c1.8,1.3,4.1,2.3,4.1,2.3c0.1-0.9,0.4-1.7,0.5-2.3h0.3
					c0.6,2.7,2.7,13,1.8,22.3c-3.8,0.4-9.7-0.7-9.7-0.7C289.5,51.1,289.5,51,289.4,50.9z"/>
				<path class="st17" d="M299.3,27.7v2h-1.6c-0.2-0.4-0.3-0.6-0.3-0.7c0,0,0,0,0,0s-0.1,0.3-0.2,0.7h-4.6c-0.3-0.2-0.5-0.4-0.8-0.7
					v-2.6C291.8,26.4,296.5,30.5,299.3,27.7z"/>
				<path class="st7" d="M299.3,23.1v4.6c-2.8,2.8-7.5-1.3-7.5-1.3v-3c1.1,0.9,3.3,0.9,4.8,0.4l1.6-0.7H299.3z"/>
				<path class="st17" d="M297.7,29.7h1.6c0,0.7-0.9,2-0.9,2C298.3,31.1,297.9,30.2,297.7,29.7z"/>
				<path class="st0" d="M287.9,15.5c-0.1,0.2-0.1,0.5-0.1,0.7s0,0.5,0.1,0.7c-3.2-0.9-1.8-3.3-1.8-3.3c-1.6,0.1-0.5-2.6-0.5-2.6
					c-3-1.3-0.7-3.7-0.7-3.7c-0.9-2.2,0.9-1.6,0.9-1.6c-1-2.1,1.4-2.3,1.4-2.3c-0.7-2.7,2.3-1.8,2.3-1.8c1.1-2.9,3.3-0.9,3.3-0.9
					c2.1-1.9,3.5,0.7,3.5,0.7c3.7,0,2.3,2.9,2.3,2.9c-0.2,0.6-1.3,0.2-1.6,0.1c0,0,0,0,0,0c0,0,0,0-0.1,0c0,0,0,0,0,0
					c-0.6-0.3-1.2-0.3-1.9-0.1l-5.2,0.5c-1.9,0.6-3,2.6-2.3,4.6l1.4,4.8C288.4,14.5,288.1,15,287.9,15.5z"/>
				<path class="st33" d="M297.8,12.1c0.6,0.4,0.7,1.5,0.7,1.5c0,0.7-0.3,0.9-0.5,1c-0.2-0.3-0.3-0.8-0.4-1.1
					c-0.1-0.5-0.1-1.1-0.3-1.7C297.6,11.8,297.8,12.1,297.8,12.1z"/>
				<path class="st7" d="M298.1,23.1l-1.6,0.7c-1.5,0.5-3.6,0.5-4.8-0.4v-0.3H298.1z"/>
				<path d="M298,14.5c-0.1,0-0.2,0-0.2,0c-0.1,0-0.2,0-0.3,0c-0.4-0.8-0.2-2-0.6-2.8v0c0,0,0,0,0-0.1c0.1,0,0.3,0,0.4,0.1
					c0.2,0.5,0.2,1.2,0.3,1.7C297.7,13.7,297.8,14.2,298,14.5z"/>
				<path class="st20" d="M297.7,29.7h-0.2c-0.1-0.4-0.1-0.6-0.2-0.7C297.4,29,297.5,29.3,297.7,29.7z"/>
				<path class="st28" d="M297.5,29.7h-0.3c0.1-0.4,0.2-0.7,0.2-0.7s0,0,0,0C297.4,29,297.4,29.3,297.5,29.7z"/>
				<path d="M297.2,10.6c0.1,0,0.1,0.1,0.1,0.2c0,0.2-0.1,0.3-0.2,0.4c0,0,0,0-0.1,0c0,0-0.1-0.1-0.1-0.1c-0.1-0.1-0.2-0.1-0.3,0
					c0.1-0.1,0.2-0.3,0.2-0.4C297,10.7,297.1,10.7,297.2,10.6z"/>
				<path class="st33" d="M296.9,11.7c0.4,0.8,0.2,2,0.6,2.8c-1.1-0.3-1.2-1.7-1.2-1.7c0-0.2,0.1-0.4,0.1-0.6
					C296.6,12,296.7,11.9,296.9,11.7z"/>
				<path class="st17" d="M292.6,29.7h4.6c-0.2,0.6-0.4,1.5-0.5,2.3C296.7,32,294.3,31,292.6,29.7z"/>
				<path d="M297.1,11.3c0.1,0.1,0.1,0.2,0.2,0.4c-0.1-0.1-0.2-0.1-0.4-0.1C297,11.5,297.1,11.4,297.1,11.3z"/>
				<path d="M297,10.7c0-0.1,0.2-0.1,0.2-0.1C297.1,10.7,297,10.7,297,10.7C297,10.7,297,10.7,297,10.7z"/>
				<path d="M297.1,11.3C297.1,11.3,297.1,11.3,297.1,11.3C297.1,11.3,297.1,11.3,297.1,11.3C297.1,11.3,297.1,11.3,297.1,11.3z"/>
				<path d="M297.1,11.3C297.1,11.3,297.1,11.3,297.1,11.3c0,0.1-0.1,0.2-0.2,0.3c0,0,0,0-0.1,0c0-0.1-0.1-0.2-0.1-0.2
					c0-0.1,0-0.1,0-0.2c0,0,0,0,0,0c0,0,0,0,0,0c0,0.1,0.1,0.1,0.2,0.1C297,11.3,297,11.3,297.1,11.3z"/>
				<path d="M297,11.2c0,0,0.1,0.1,0.1,0.1c0,0-0.1,0-0.2,0c-0.1,0-0.2,0-0.2-0.1c0,0,0,0,0,0C296.8,11.1,296.9,11.1,297,11.2z"/>
				<path d="M296.9,10.8C296.9,10.8,296.9,10.8,296.9,10.8c0,0.1,0,0.3-0.1,0.4c0,0,0,0,0,0C296.7,11.1,296.7,10.9,296.9,10.8z"/>
				<path d="M296.9,11.6C296.9,11.6,296.9,11.7,296.9,11.6C296.9,11.7,296.9,11.6,296.9,11.6C296.9,11.6,296.9,11.6,296.9,11.6z"/>
				<path d="M296.9,11.7L296.9,11.7c-0.2,0.2-0.3,0.4-0.5,0.5C296.5,11.8,296.7,11.7,296.9,11.7C296.9,11.6,296.9,11.7,296.9,11.7z"
					/>
				<path d="M296.7,11.4c0.1,0.1,0.1,0.2,0.1,0.2c-0.2,0-0.4,0.2-0.5,0.6c-0.6,0.5-1.5,0.9-2.1,1.2c-0.1,0.1-0.5,0.2-0.9,0.5
					c0-0.2,0-0.4,0-0.4c0.2-0.1,0.3-0.3,0.4-0.4c0.2-0.1,0.4-0.2,0.6-0.3c0.8-0.4,1.9-0.8,2.4-1.5C296.7,11.3,296.7,11.3,296.7,11.4
					z"/>
				<path d="M296.7,11.2C296.7,11.2,296.7,11.2,296.7,11.2C296.7,11.2,296.7,11.2,296.7,11.2C296.7,11.2,296.7,11.2,296.7,11.2z"/>
				<path d="M296.7,11.2C296.7,11.2,296.7,11.2,296.7,11.2C296.7,11.2,296.7,11.2,296.7,11.2C296.7,11.2,296.7,11.2,296.7,11.2z"/>
				<path class="st0" d="M294.9,4.3c0.6-0.2,1.3-0.1,1.9,0.1c-0.5,1.3-2.2,1-2.2,1s-0.3,1.2-2,1.5c0,0,1.4,1.4,0.6,2.9
					c0,0,1.4,2,0.5,3.3c-0.4,0.2-0.8,0.4-1.3,0.6c-0.1,0-0.2,0.1-0.4,0.2c-0.4-0.3-0.9-0.4-1.5-0.4c-0.7,0-1.3,0.3-1.8,0.7l-1.4-4.8
					c-0.6-1.9,0.4-3.9,2.3-4.6L294.9,4.3z"/>
				<path class="st0" d="M293.7,13.1c-0.1,0.1-0.2,0.3-0.4,0.4c0,0,0,0.2,0,0.4c-0.3,0.1-0.5,0.3-0.8,0.4c-0.1-0.2-0.3-0.3-0.5-0.4
					c0.2-0.1,0.3-0.2,0.4-0.2C292.8,13.5,293.3,13.3,293.7,13.1z"/>
				<path class="st0" d="M293.4,13.9c0,0.4,0,1.1-0.2,1.4c-0.1-0.4-0.3-0.7-0.6-1C292.8,14.1,293.1,14,293.4,13.9z"/>
				<path class="st7" d="M291.8,18.7c-0.4,0.2-0.8,0.3-1.2,0.3c-0.2,0-0.3,0-0.5,0l-0.8-2.7c0.9,0.2,1.6-0.2,2-0.6
					c0.3-0.3,0.5-0.5,0.5-0.5c0.8,0.6,1.2,0.5,1.4,0.2c0.1,0.3,0.2,0.6,0.2,0.9C293.3,17.3,292.7,18.2,291.8,18.7z"/>
				<path class="st0" d="M291.8,18.7c0.1,0,2.1,0.6,0.9,2c0,0,1.3,2.5-0.9,2.5c-0.1,0-0.2,0-0.3,0c-0.2-0.2-0.3-0.4-0.4-0.7l-1-3.5
					c0.2,0,0.3,0,0.5,0C291,19,291.4,18.9,291.8,18.7z"/>
				<path class="st0" d="M293.2,15.3c-0.2,0.3-0.6,0.4-1.4-0.2c0,0-0.2,0.2-0.5,0.5l0,0c0.1-0.1,0.1-0.3,0-0.4
					c-0.1-0.1,0.5-0.5,1.2-0.9C292.8,14.6,293,14.9,293.2,15.3z"/>
				<path class="st28" d="M292.6,29.7h-0.8V29C292,29.2,292.3,29.4,292.6,29.7z"/>
				<path class="st0" d="M292.1,13.9c0.2,0.1,0.3,0.3,0.5,0.4c-0.7,0.4-1.3,0.8-1.2,0.9c0.1,0.1,0.1,0.3,0,0.4
					c-0.1,0.1-0.2,0.1-0.3,0C290.1,15.1,291.4,14.3,292.1,13.9z"/>
				<path class="st0" d="M291.3,15.6L291.3,15.6c-0.4,0.4-1.1,0.8-2,0.6l-0.6-2c0.5-0.4,1.1-0.7,1.8-0.7c0.5,0,1.1,0.2,1.5,0.4
					c-0.7,0.4-1.9,1.2-1,1.7C291.1,15.7,291.2,15.6,291.3,15.6z"/>
				<path class="st0" d="M291.1,22.5c0.1,0.3,0.2,0.5,0.4,0.7c-1.6-0.2-1.4-1.8-1.4-1.8c-1.5-0.7-1.3-1.8-1.3-1.8
					c-2-0.7-0.8-2.6-0.8-2.6c0.3,1,1.1,1.8,2.2,2L291.1,22.5z"/>
				<path class="st7" d="M289.3,16.2l0.8,2.7c-1-0.2-1.9-1-2.2-2c-0.1-0.2-0.1-0.5-0.1-0.7s0-0.5,0.1-0.7
					C288.4,15.9,288.9,16.1,289.3,16.2z"/>
				<path class="st0" d="M288.7,14.2l0.6,2c-0.4-0.1-0.9-0.3-1.4-0.7C288.1,15,288.4,14.5,288.7,14.2z"/>
				<path class="st28" d="M287.8,40.7c0,0,0.2,2.4,0.5,5c-3.5,7-6.4,8.6-6.4,8.6c0-0.1-0.1-0.2-0.3-0.3v0c-0.6-0.5-2.1-0.6-2.1-0.6
					c3.8-2.2,6.6-9,8.2-13.6C287.8,40,287.8,40.3,287.8,40.7z"/>
				<path class="st7" d="M281.7,53.9L281.7,53.9c-0.3,1.2-1.5,2.5-1.5,2.5c-0.6,0.5-0.6-0.1-0.6-0.1c0.2-0.3,0-0.9,0-0.9
					c-3.2,1.8-4.3,1.3-4.3,1.3c-1.4-0.2,4.3-3.3,4.3-3.3S281.1,53.4,281.7,53.9z"/>
			</g>
			<g>
			</g>
		</g>
	</g>
</g>
<g id="speedoman" class="st35">
	<g id="XMLID_6_" class="st25">
		<g>
			<path class="st7" d="M304.6,78.1c0,0-0.8,0.6-1.4-0.2l0.1-0.9c0.8,0.5,1.3-0.1,1.3-0.1V78.1z"/>
			<path class="st22" d="M302.5,16.4l0.7,1.9l-0.9,0.2c0.1-0.4,0.1-0.8-0.1-1.2l-0.2-0.7L302.5,16.4z"/>
			<path class="st7" d="M304.6,78.1c3.5,12.7,0.1,7.5,0.1,7.5c-4.1-8.1-1.5-7.8-1.5-7.8C303.9,78.7,304.6,78.1,304.6,78.1z"/>
			<path class="st7" d="M302.5,13c-0.1,0-0.4,0.8-0.7,0.4c-0.1-0.1-0.3-0.5-0.5-1c0.3,0.1,0.7,0.2,1.2,0.3
				C302.5,12.9,302.5,13,302.5,13z"/>
			<path class="st22" d="M301.1,17.7l0.6-0.9l0.4-0.2l0.2,0.7c0.1,0.4,0.1,0.8,0.1,1.2l-1.3,0.3V17.7z"/>
			<path class="st7" d="M301.7,14.2c0,0-0.1,0.4-0.5-0.6c0,0,0,0,0,0l0,0l-0.4-1.4c0,0,0.2,0.1,0.5,0.2c0.2,0.5,0.4,0.8,0.5,1
				c0.4,0.4,0.7-0.4,0.7-0.4c0,0,0-0.1-0.1-0.4c0.2,0,0.4,0,0.5,0c0,0,0.1,0,0.2,0l0,0.2C303.2,12.8,303.4,13.8,301.7,14.2z"/>
			<path class="st7" d="M301.9,15.8l-0.7-2.2c0.4,1,0.5,0.6,0.5,0.6c1.7-0.5,1.5-1.5,1.5-1.5l0-0.2c0.3,0,0.9,0.3,0.2,1.5
				C303.4,14.1,302.8,15.1,301.9,15.8z"/>
			<path class="st7" d="M300.8,68.9c-1-8.2-5.3-10.9-7.5-11.7c2.8-5.7,5.6-2.3,5.6-2.3c0,0,0,0-0.1-0.1c0.2,0.3,9.2,11.5,2,24.4
				c-0.4,0.7-1.2-0.1-1.2-0.1C301.7,73.4,300.8,68.9,300.8,68.9z"/>
			<path class="st23" d="M301.2,13.6L301.2,13.6C301.2,13.6,301.2,13.6,301.2,13.6z"/>
			<path class="st7" d="M300.9,87.8c-4.1-8.1-1.5-7.8-1.5-7.8c0.6,0.8,1.4,0.2,1.4,0.2C304.3,93,300.9,87.8,300.9,87.8z"/>
			<path class="st7" d="M303.4,77c0.1-0.4,4.4-13.1-4.5-22.1c1.9-2.7,3.8-1.8,3.9-1.8c0,0,0,0,0,0c2.3,3.2,6.4,11.4,1.9,23.7
				C304.6,76.9,304.2,77.5,303.4,77L303.4,77z"/>
			<path class="st23" d="M300.8,12.2l-1-3.3c0.1,0,0.2,0,0.2,0s0.1-0.8,2-0.2l1.2,4c-0.1,0-0.2,0-0.2,0c-0.2,0-0.4,0-0.5,0
				c-0.2-0.8-0.7-2.9-1-3c0,0-0.7-0.2-0.7,0.3c-0.1,0.6,0.2,1.6,0.5,2.4C301,12.3,300.8,12.2,300.8,12.2
				C300.8,12.2,300.8,12.2,300.8,12.2z"/>
			<path class="st23" d="M296.2,14.3c0,0,1.8,0.4,3.3-0.3l-0.9-3.6c0,0-2.1-0.5-3.8,1.9C294.9,12.3,295.2,13.9,296.2,14.3z
				 M300.7,14.3c0,0-1.4,1.6-5.6,0.8c0,0-1.1-0.8-1.6-1.9c0-0.1-0.1-0.1-0.1-0.2c0.7-0.6,0.7-1.4,0.5-2.2c0,0,0,0,0,0
				c1.9-2.2,5-2,5.8-2l1,3.3c0,0,0,0,0,0l0.4,1.4c-0.2-0.5-0.5-1.4-0.8-2.8C300.4,11,300.6,12.1,300.7,14.3z"/>
			<path class="st7" d="M300.8,80.2c0,0-0.8,0.6-1.4-0.2l0.2-0.9c0,0,0.8,0.8,1.2,0.1V80.2z"/>
			<path class="st7" d="M299.1,6.8l0.6,2.1c-0.8-0.1-3.9-0.2-5.8,2c-0.2-0.8-0.7-1.5-0.7-1.5c0.8-1.5-0.6-3-0.6-3
				c1.6-0.3,1.9-1.5,1.9-1.5s1.6,0.3,2.1-1.1c0,0,0,0,0,0c0,0,0,0,0.1,0c0,0,0,0,0,0C297.9,4.4,298.7,5.5,299.1,6.8z"/>
			<path class="st0" d="M296.2,0.8c3.6,0,2.2,2.9,2.2,2.9c-0.2,0.6-1.3,0.2-1.6,0.1c0,0,0,0,0,0c0,0,0,0-0.1,0c0,0,0,0,0,0
				c-0.6-0.3-1.2-0.3-1.8-0.1L292.1,4c0.4-1.7,0.9-3.2,1.4-4.4C295.2-1.2,296.2,0.8,296.2,0.8z"/>
			<path class="st33" d="M297.8,11.6c0.6,0.4,0.7,1.5,0.7,1.5c0,1.1-0.7,1-0.7,1c-1.4,0-1.5-1.8-1.5-1.8
				C296.5,10.2,297.8,11.6,297.8,11.6z"/>
			<path class="st7" d="M297.6,29.5h1.6c0,0.7-0.8,2-0.8,2C298.3,31,297.9,30.1,297.6,29.5z"/>
			<path class="st7" d="M299.2,29.5c0,0,2.9,3.2,3,9.7c0,0,0.5,5.6,0,11.2c0,0.5-0.3,0.9-0.8,1.2c-0.5,0.3-1.3,0.5-2.2,0.7
				c0.9-9.4-1.1-19.9-1.7-22.7h0.1c0.3,0.6,0.6,1.5,0.8,2C298.4,31.5,299.2,30.2,299.2,29.5z"/>
			<path class="st7" d="M297.6,29.5h-0.1c-0.1-0.4-0.1-0.6-0.1-0.7C297.4,28.9,297.5,29.1,297.6,29.5z"/>
			<path class="st7" d="M297.5,29.5h-0.3c0.1-0.4,0.2-0.7,0.2-0.7s0,0,0,0C297.4,28.9,297.4,29.1,297.5,29.5z"/>
			<path class="st7" d="M297.8,11.6c0,0-1.2-1.4-1.5,0.7c0,0,0.1,1.7,1.5,1.8c0,0,0.7,0.1,0.7-1C298.5,13.1,298.3,12,297.8,11.6z
				 M299.6,14c-1.5,0.7-3.3,0.3-3.3,0.3c-1.1-0.4-1.3-2-1.3-2c1.7-2.4,3.8-1.9,3.8-1.9L299.6,14z"/>
			<polygon class="st22" points="296.2,-6.4 297.3,-5.2 295.2,-3.4 294.7,-4 			"/>
			<path class="st23" d="M294.7-4l0.5,0.6c0,0-0.8,1.1-1.6,3c-0.2,0.1-0.5,0.3-0.7,0.5c0,0-0.1-0.1-0.3-0.2
				C293.6-2.6,294.7-4,294.7-4z"/>
			<path class="st7" d="M298.1,22.9h-6.2c2.2,0,0.9-2.5,0.9-2.5c1.1-1.4-0.8-2-0.9-2c0.6-0.3,1.1-0.9,1.4-1.6
				c1.5,1.4,3.9,2.5,7.8,2.1l1.3-0.3c-0.3,1.7-1.9,3.5-3.4,4L298.1,22.9z"/>
			<path class="st7" d="M291.9,22.9h6.2l-1.5,0.7c-1.5,0.5-3.5,0.5-4.6-0.4V22.9z"/>
			<path class="st23" d="M294,10.8c0.2,0.7,0.2,1.6-0.5,2.2c-0.1-0.4-0.2-0.7-0.1-1.1c0-0.2,0.1-0.4,0.3-0.6
				C293.7,11.2,293.8,11,294,10.8z"/>
			<path class="st7" d="M291.9,28.8v-5.6c1.1,1,3.2,0.9,4.6,0.4l1.5-0.7h1.2v6.6h-1.6c-0.2-0.4-0.3-0.6-0.3-0.7c0,0,0,0,0,0
				s-0.1,0.3-0.2,0.7h-4.5C292.4,29.3,292.1,29.1,291.9,28.8z"/>
			<path class="st7" d="M301.1,17.7c-4,1-6.5-0.9-7.7-2.2c0-0.2-0.1-0.4-0.1-0.6c0.2-0.4,0.2-1.2,0.2-1.6l0.1-0.1
				c0.5,1.1,1.6,1.9,1.6,1.9c4.2,0.8,5.6-0.8,5.6-0.8c-0.2-2.2-0.4-3.3-0.4-3.5c0.4,1.4,0.6,2.2,0.8,2.8c0,0,0,0,0,0c0,0,0,0,0,0
				l0.7,2.2l0.2,0.7l-0.4,0.2L301.1,17.7z"/>
			<path class="st23" d="M293.3,16.7c0.1-0.3,0.1-0.6,0.1-0.9c0-0.1,0-0.2,0-0.4c1.2,1.3,3.6,3.2,7.7,2.2v1.2
				C297.2,19.2,294.7,18.1,293.3,16.7z"/>
			<path class="st22" d="M293.5,13.2L293.5,13.2c-0.1-0.1-0.1-0.2-0.1-0.2c0,0,0,0,0,0C293.5,13.1,293.5,13.2,293.5,13.2z"/>
			<path class="st0" d="M293.5,13.3c0,0.4,0.1,1.2-0.2,1.6c-0.1-0.3-0.3-0.6-0.5-0.8L293.5,13.3z"/>
			<path class="st23" d="M293.4,15.8c0,0.3,0,0.6-0.1,0.9c-0.7-0.6-1.1-1.3-1.5-1.9c0.1-0.1,0.1-0.1,0.1-0.1
				c0.6,0.4,0.9,0.5,1.2,0.4c0.1,0.1,0.2,0.3,0.3,0.4C293.4,15.6,293.4,15.7,293.4,15.8z"/>
			<path class="st7" d="M296.7,31.9c0,0-2.3-1-4-2.4h4.5C297,30.1,296.8,31,296.7,31.9z"/>
			<path class="st0" d="M293.3,11.9l-1.5,0.1c-0.4-3-0.2-5.8,0.3-8.1l2.8-0.3c0.6-0.2,1.2-0.1,1.8,0.1c-0.5,1.4-2.1,1.1-2.1,1.1
				s-0.3,1.2-1.9,1.5c0,0,1.4,1.4,0.6,3c0,0,0.5,0.7,0.7,1.5c0,0,0,0,0,0c-0.1,0.2-0.3,0.3-0.4,0.5
				C293.5,11.5,293.4,11.7,293.3,11.9L293.3,11.9z"/>
			<path class="st22" d="M293.3,11.9L293.3,11.9c0,0.4,0,0.8,0.1,1.1c0,0,0,0,0,0c0,0,0,0.1,0,0.3l-0.7,0.7
				c-0.1-0.2-0.3-0.3-0.5-0.5l-0.5-1.5L293.3,11.9z"/>
			<path class="st7" d="M293.3,14.9c0.1,0.2,0.1,0.4,0.1,0.6c-0.1-0.1-0.2-0.3-0.3-0.4C293.1,15,293.2,15,293.3,14.9z"/>
			<path class="st0" d="M293.3,14.9c-0.1,0.1-0.1,0.2-0.2,0.2c-0.3-0.4-0.5-0.8-0.5-0.8l0.2-0.3C293,14.3,293.2,14.6,293.3,14.9z"/>
			<path class="st0" d="M291.9,18.4c0.1,0,2,0.6,0.9,2c0,0,1.3,2.5-0.9,2.5c-0.1,0-0.2,0-0.3,0c-0.2-0.2-0.3-0.4-0.3-0.7l-1-3.6
				c0.1,0,0.3,0,0.5,0C291.2,18.6,291.6,18.5,291.9,18.4z"/>
			<path class="st23" d="M293.1,15.1c-0.2,0.1-0.6,0.1-1.2-0.4c0,0,0,0.1-0.1,0.1c-0.5-1-0.7-1.7-0.7-1.7l0-0.1
				c0.4,0.1,0.9,0.2,1.2,0.5l0.2,0.8C292.6,14.3,292.7,14.6,293.1,15.1z"/>
			<path class="st22" d="M292.8,14l-0.2,0.3l-0.2-0.8C292.5,13.7,292.7,13.9,292.8,14z"/>
			<path class="st7" d="M291.9,18.4c-0.4,0.2-0.8,0.3-1.2,0.3c-0.2,0-0.3,0-0.5,0l-0.8-2.8c1.2,0.2,2-0.6,2.3-1
				c0.3,0.6,0.8,1.3,1.5,1.9C293,17.4,292.5,18,291.9,18.4z"/>
			<path class="st7" d="M292.7,29.5h-0.8v-0.7C292.1,29.1,292.4,29.3,292.7,29.5z"/>
			<path class="st23" d="M291.3,4.1c0.3-1.6,0.8-3,1.3-4.2c0.2,0.1,0.3,0.2,0.3,0.2c0.2-0.2,0.5-0.4,0.7-0.5
				c-0.5,1.2-1.1,2.6-1.4,4.4L291.3,4.1z"/>
			<path class="st0" d="M288.2,15.1c-0.1,0.2-0.1,0.5-0.1,0.8c0,0.3,0,0.5,0.1,0.8c-3.1-0.9-1.8-3.4-1.8-3.4
				c-1.6,0.1-0.5-2.6-0.5-2.6c-2.9-1.3-0.7-3.8-0.7-3.8c-0.9-2.3,0.9-1.6,0.9-1.6c-1-2.1,1.4-2.4,1.4-2.4c-0.7-2.7,2.2-1.8,2.2-1.8
				c0.8-2.3,2.3-1.6,2.9-1.1c-0.5,1.2-0.9,2.6-1.3,4.2l-1.4,0.1c-1.9,0.6-2.9,2.7-2.3,4.6l1.3,4.9C288.6,14.1,288.3,14.6,288.2,15.1
				z"/>
			<path class="st23" d="M290.9,12c-0.3-3.1,0-5.7,0.4-8l0.8-0.1c-0.5,2.3-0.7,5-0.3,8.1l0.5,1.5c-0.3-0.3-0.8-0.4-1.2-0.5L290.9,12
				z"/>
			<path class="st0" d="M289.9,4.2l1.4-0.1c-0.5,2.2-0.7,4.9-0.4,8l0.2,1c-0.1,0-0.2,0-0.4,0c-0.7,0-1.3,0.3-1.8,0.7l-1.3-4.9
				C287,6.9,288.1,4.8,289.9,4.2z"/>
			<path class="st0" d="M291.1,13.1c0,0,0.2,0.8,0.7,1.7c-0.3,0.3-1.1,1.2-2.3,1l-0.6-2.1c0.5-0.4,1.1-0.7,1.8-0.7
				C290.9,13,291,13,291.1,13.1L291.1,13.1z"/>
			<path class="st0" d="M290.3,18.6l1,3.6c0.1,0.3,0.2,0.5,0.3,0.7c-1.5-0.2-1.4-1.8-1.4-1.8c-1.4-0.7-1.2-1.8-1.2-1.8
				c-1.9-0.7-0.8-2.6-0.8-2.6C288.4,17.6,289.3,18.4,290.3,18.6z"/>
			<path class="st0" d="M289.5,15.8l0.8,2.8c-1-0.2-1.8-1-2.1-2c-0.1-0.2-0.1-0.5-0.1-0.8c0-0.3,0-0.5,0.1-0.8
				C288.6,15.5,289.1,15.7,289.5,15.8z"/>
			<path class="st13" d="M292,56.8c-2.2-0.5-2.3-5.5-2.3-5.7c0,0.1,0.1,0.2,0.1,0.3c0,0,5.8,1.2,9.5,0.7c0.9-0.1,1.7-0.3,2.2-0.7
				c0,0,0.5,0.5,1.3,1.6c-0.1,0-1.9-0.8-3.9,1.8c0,0-2.9-3.4-5.6,2.3C292.5,56.9,292,56.8,292,56.8z"/>
			<path class="st0" d="M289,13.7l0.6,2.1c-0.4-0.1-0.9-0.3-1.4-0.7C288.3,14.6,288.6,14.1,289,13.7z"/>
			<path class="st7" d="M292.7,29.5c1.7,1.4,4,2.4,4,2.4c0.1-0.9,0.3-1.8,0.5-2.4h0.3c0.6,2.7,2.6,13.3,1.7,22.7
				c-3.7,0.4-9.5-0.7-9.5-0.7c0-0.1-0.1-0.2-0.1-0.3c-0.4-0.9-0.7-2.6-0.9-4.3c0.8-1.8,2.8-8.5,3.1-9.6c-1.1,3.4-2.2,6.2-3.3,8.4
				c-0.3-2.6-0.5-5-0.5-5c0-0.3,0-0.7,0-1c0-8.2,3.9-10.9,3.9-10.9v0.7H292.7z"/>
			<path class="st7" d="M288.1,40.7c0,0,0.2,2.4,0.5,5c-3.4,7-6.5,8.5-6.5,8.5c-0.2-0.8-2-0.6-2-0.6c3.7-2.3,6.5-9.1,8-13.9
				C288,40.1,288,40.4,288.1,40.7z"/>
			<path class="st7" d="M282.1,54.2c-0.3,1.2-1.4,2.5-1.4,2.5c-0.5,0.5-0.6-0.1-0.6-0.1c0.2-0.3,0-0.9,0-0.9
				c-3.1,1.8-4.2,1.3-4.2,1.3c-1.3-0.2,4.2-3.4,4.2-3.4S281.9,53.4,282.1,54.2z"/>
		</g>
		<g>
		</g>
	</g>
</g>
<g id="first_island_paint" class="st35">
	<g id="XMLID_1_" class="st25">
		<g>
			<polygon class="st21" points="475.9,-3.9 454.2,34.4 454.2,10.2 			"/>
			<path class="st26" d="M475.9-3.9l-21.7,14.1l-30.3,0.3l-25.7,0.3l2.9,23.4l-18.3,0.2l-54.3,0.5l38.3,22.8l-44.9-1.7l-19.2-0.7
				L281,91.4l-24.3-1.8l-50-3.7l5.1,17.8l-60.1-9l-26.2-3.9L26,109.9L-5.6,89.6l-70.1-44.9l9.5-4v0l23-9.6L-60.3,4.7l-29.1-18.5
				L7.7-46.9h0l31.7,0.3l26.7,0.3L38.6-57.4l46.6-18.8l37.4-3.4l34.9,9.8l78.9-17.8l67.4,22.1L368.2-53v1.3l-0.2,0.8l-16.2,9.5
				l13.9,1.1L362.1-23l10.5,5.5l18.2-5.5l8.8-9.4l0.7-5.4l8.7,0.7L475.9-3.9z M226.9,38.3c-9.9-1.2-9.1,13.3-9.1,13.3s5,1.7,4.5,0
				C219.5,40.2,226.9,38.3,226.9,38.3z M190.5,55.3c3.2-0.5,6.2-1.4,5.7-3.2c-2.7-10.4,3.2-25.2,3.2-25.2
				c-9.1,4.6-9.1,26.5-9.1,26.5C187.4,16.1,170.9,21,170.9,21c10.8,2.1,12,34.8,12,34.8S186.9,55.9,190.5,55.3z M7.7,9.4
				c0,0,3.3-0.6,2.9-2.5C7.5-10.8-0.5-9.2-0.5-9.2C7-8.4,7.7,9.4,7.7,9.4z"/>
			<polygon class="st34" points="454.2,10.2 454.2,34.4 423.9,30.4 423.9,10.6 			"/>
			<polygon class="st21" points="423.9,10.6 423.9,30.4 398.1,10.9 			"/>
			<polygon class="st27" points="423.9,30.4 401,52.1 396.8,47.1 401,34.2 398.1,10.9 			"/>
			<polygon class="st29" points="394.9,-86 404,-68.2 394.1,-54.5 392.8,-54.6 			"/>
			<polygon class="st29" points="404,-68.2 400.3,-37.8 391.8,-38.4 392.8,-54.6 394.1,-54.5 			"/>
			<polygon class="st21" points="401,34.2 396.8,47.1 375.4,112.5 382.7,34.4 			"/>
			<polygon class="st29" points="400.3,-37.8 399.6,-32.4 390.8,-23 391.8,-38.4 			"/>
			<polygon class="st11" points="394.1,-87.5 394.9,-86 392.8,-54.6 391.8,-38.4 387.6,-38.7 383.1,-61.6 			"/>
			<polygon class="st19" points="394.1,-87.5 383.1,-61.6 368.2,-78.2 			"/>
			<polygon class="st11" points="391.8,-38.4 390.8,-23 387.6,-38.7 			"/>
			<polygon class="st19" points="387.6,-38.7 390.8,-23 372.6,-17.5 369.7,-40.1 			"/>
			<polygon class="st19" points="383.1,-61.6 387.6,-38.7 369.7,-40.1 369.3,-42.8 370.7,-52.5 368.2,-53 368.2,-78.2 			"/>
			<polygon class="st27" points="382.7,34.4 375.4,112.5 360.7,68.4 360.7,68.4 366.7,57.6 328.4,34.8 			"/>
			<polygon class="st29" points="368.9,-40.1 369.7,-40.1 372.6,-17.5 362.1,-23 365.8,-40.4 			"/>
			<polygon class="st19" points="370.7,-52.5 369.3,-42.8 368.2,-51 			"/>
			<polygon class="st19" points="370.7,-52.5 368.2,-51 368.2,-51.7 368.2,-53 			"/>
			<polygon class="st29" points="369.3,-42.8 369.7,-40.1 368.9,-40.1 			"/>
			<polygon class="st29" points="368.2,-51 369.3,-42.8 368.9,-40.1 365.8,-40.4 368,-50.9 			"/>
			<polygon class="st27" points="368,-50.9 365.8,-40.4 351.8,-41.4 			"/>
			<polygon class="st21" points="366.7,57.6 360.7,68.4 360.7,68.4 344.6,97.4 338.3,77 337.7,109.9 309.8,160 321.8,55.9 			"/>
			<polygon class="st10" points="344.6,97.4 337.7,109.9 338.3,77 			"/>
			<polygon class="st27" points="321.8,55.9 309.8,160 288.4,112.5 290.5,81.1 267.4,134.2 265.7,120.6 281,91.4 302.7,55.1 			"/>
			<polygon class="st10" points="290.5,81.1 288.4,112.5 267.4,134.2 			"/>
			<polygon class="st34" points="281,91.4 265.7,120.6 225,198 217.2,197.1 204.2,195.7 256.7,89.6 			"/>
			<polygon class="st27" points="256.7,89.6 204.2,195.7 204.2,195.7 196.2,145.2 196.2,211.9 176.5,251.8 160.1,183.7 149.5,160 
				130.6,170.7 128.4,164.3 142.8,153.8 211.8,103.7 206.7,85.9 			"/>
			<path class="st31" d="M217.8,51.7c0,0-0.8-14.5,9.1-13.3c0,0-7.3,1.9-4.6,13.3C222.7,53.4,217.8,51.7,217.8,51.7z"/>
			<polygon class="st34" points="217.6,212.1 199.7,246.2 176.5,251.8 196.2,211.9 217.2,211.9 			"/>
			<polygon class="st10" points="217.2,197.1 217.2,211.9 196.2,211.9 204.2,195.7 204.2,195.7 			"/>
			<polygon class="st21" points="211.8,103.7 142.8,153.8 151.7,94.7 			"/>
			<polygon class="st10" points="204.2,195.7 196.2,211.9 196.2,145.2 			"/>
			<path class="st31" d="M196.2,52.1c0.5,1.8-2.5,2.7-5.7,3.2l-0.2-2c0,0,0-21.9,9.1-26.5C199.4,26.8,193.5,41.7,196.2,52.1z"/>
			<path class="st31" d="M190.3,53.3l0.2,2c-3.6,0.6-7.6,0.6-7.6,0.6s-1.2-32.8-12-34.8C170.9,21,187.4,16.1,190.3,53.3z"/>
			<polygon class="st10" points="149.5,160 160.1,183.7 130.6,170.7 			"/>
			<polygon class="st27" points="151.7,94.7 142.8,153.8 128.4,164.3 91.2,191.4 125.5,90.8 			"/>
			<polygon class="st21" points="125.5,90.8 91.2,191.4 66.1,124.3 66.1,160 26,109.9 			"/>
			<polygon class="st10" points="66.1,124.3 91.2,191.4 66.1,160 			"/>
			<polygon class="st34" points="66.1,160 91.2,191.4 22.2,181.7 -5.6,89.6 26,109.9 			"/>
			<polygon class="st27" points="66.1,-46.3 39.4,-46.6 38.6,-57.4 			"/>
			<polygon class="st27" points="-5.6,89.6 22.2,181.7 -27.3,89.6 -27.3,112.5 -75.7,44.7 			"/>
			<polygon class="st34" points="-27.3,89.6 22.2,181.7 -27.3,112.5 			"/>
			<path class="st31" d="M10.7,7C11,8.8,7.7,9.4,7.7,9.4S7-8.4-0.5-9.2C-0.5-9.2,7.5-10.8,10.7,7z"/>
			<polygon class="st27" points="-60.3,4.7 -43.1,31.2 -66.2,40.7 			"/>
			<polygon class="st21" points="-60.3,4.7 -66.2,40.7 -89.4,-13.8 			"/>
		</g>
		<g>
		</g>
	</g>
</g>
<g id="colors" class="st35">
	<rect x="-293.9" y="-328.4" class="st14" width="100" height="100"/>
	<rect x="-393.9" y="-228.4" class="st39" width="100" height="100"/>
	<rect x="-296" y="-128.4" class="st3" width="100" height="100"/>
	<rect x="-396" y="-128.4" class="st36" width="100" height="100"/>
	<rect x="-193.9" y="-228.4" class="st32" width="100" height="100"/>
	<rect x="-93.9" y="-228.4" class="st12" width="100" height="100"/>
	<rect x="-293.9" y="-228.4" class="st16" width="100" height="100"/>
	<rect x="-393.9" y="-328.4" class="st41" width="100" height="100"/>
	<rect x="-93.9" y="-328.4" class="st9" width="100" height="100"/>
	<rect x="-193.9" y="-328.4" class="st8" width="100" height="100"/>
</g>
</svg>
