<?xml version="1.0" standalone="no"?>
<!DOCTYPE svg PUBLIC "-//W3C//DTD SVG 1.1//EN" "http://www.w3.org/Graphics/SVG/1.1/DTD/svg11.dtd" >
<svg xmlns="http://www.w3.org/2000/svg">
<metadata></metadata>
<defs>
<font id="zigzag-notroundeduploadedfile" horiz-adv-x="1306" >
<font-face units-per-em="2048" ascent="1577" descent="-471" />
<missing-glyph horiz-adv-x="552" />
<glyph unicode="&#x2e;&#x2e;&#x2e;" horiz-adv-x="1257" d="M76 106q0 53 36 89t89 36q51 0 87 -35.5t36 -89t-35 -88t-88.5 -34.5t-89 35.5t-35.5 86.5zM506 106q0 53 36 89t89 36q51 0 87 -35.5t36 -89t-35 -88t-88 -34.5t-89 35.5t-36 86.5zM934 106q0 53 37 89t88 36t87 -35.5t36 -89t-36 -88t-87 -34.5q-53 0 -89 35.5 t-36 86.5z" />
<glyph horiz-adv-x="0" />
<glyph unicode="&#xd;" horiz-adv-x="681" />
<glyph unicode=" "  horiz-adv-x="552" />
<glyph unicode="&#x09;" horiz-adv-x="552" />
<glyph unicode="&#xa0;" horiz-adv-x="552" />
<glyph unicode="!" horiz-adv-x="399" d="M74 106q0 53 36.5 89t88 36t87.5 -35.5t36 -89t-36 -88t-87 -34.5q-53 0 -89 35.5t-36 86.5zM92 408h215v989h-215v-989z" />
<glyph unicode="&#x22;" horiz-adv-x="722" d="M92 858h215v539h-215v-539zM416 858h215v539h-215v-539z" />
<glyph unicode="#" horiz-adv-x="1609" d="M61 303v215h289l99 363h-232v215h289l86 327l209 -57l-72 -270h367l88 327l209 -57l-74 -270h231v-215h-288l-97 -363h230v-215h-289l-86 -326l-209 56l74 270h-369l-88 -326l-207 56l72 270h-232zM573 518h369l96 363h-368z" />
<glyph unicode="$" horiz-adv-x="1085" d="M78 125l94 192q223 -109 315 -129v459l-106 39q-113 43 -182.5 142.5t-69.5 220.5q0 152 104.5 262t253.5 116v168h162v-174q82 -18 264 -86l-71 -202l-193 67v-383l96 -35q125 -45 201 -154.5t78 -242.5q0 -160 -108.5 -280.5t-266.5 -137.5v-172h-162v176 q-82 10 -161.5 41t-247.5 113zM344 1049q0 -66 34 -104t109 -68v340q-59 -10 -101 -57.5t-42 -110.5zM649 184q70 16 115 72.5t45 128.5q0 143 -160 205v-406z" />
<glyph unicode="%" horiz-adv-x="1460" d="M113 1110q0 -119 84 -203t202 -84q117 0 202 83t85 204t-85 204t-202 83q-119 0 -202.5 -84t-83.5 -203zM272 1110q0 51 38 88t89.5 37t88 -36t36.5 -89q0 -51 -36.5 -88t-88 -37t-89.5 36t-38 89zM311 55l643 1377l195 -91l-643 -1378zM774 287q0 -119 85 -203t202 -84 q119 0 203 84t84 203q0 117 -84 201.5t-203 84.5q-115 0 -201 -84.5t-86 -201.5zM936 287q0 51 37 88t88 37q53 0 90 -36t37 -89.5t-37 -90t-90 -36.5q-51 0 -88 37t-37 90z" />
<glyph unicode="&#x26;" horiz-adv-x="1196" d="M61 420q0 213 166 352l60 49l-68 84h-2q-74 90 -74 207q0 133 94.5 228.5t227.5 95.5t228 -94.5t95 -229.5q0 -152 -114 -246l-84 -69l311 -371l139 117l138 -166l-138 -117l138 -164l-164 -139l-140 166l-63 -55q-131 -104 -293 -105q-188 0 -322.5 133t-134.5 324z M276 420q0 -100 71 -171t171 -71q88 0 154 55l65 54l-311 370l-61 -51q-89 -73 -89 -186zM358 1112q0 -39 25 -70l70 -81l84 69q37 31 36 82q0 43 -30.5 75t-77.5 34q-45 -4 -76 -33t-31 -76z" />
<glyph unicode="'" horiz-adv-x="399" d="M92 858h215v539h-215v-539z" />
<glyph unicode="(" horiz-adv-x="587" d="M154 698.5q0 549.5 231 1163.5l203 -76q-219 -573 -219 -1088q0 -508 217 -1081l-201 -76q-231 608 -231 1157.5z" />
<glyph unicode=")" horiz-adv-x="587" d="M123 1782q219 -573 219 -1088q0 -508 -217 -1081l201 -76q231 608 231 1157.5t-231 1163.5z" />
<glyph unicode="*" horiz-adv-x="851" d="M84 981l182 104l-182 105l80 139l182 -104v209h162v-209l180 104l82 -139l-182 -105l182 -104l-82 -141l-180 106v-211h-162v211l-182 -106z" />
<glyph unicode="+" horiz-adv-x="1300" d="M113 432v215h430v430h215v-430h430v-215h-430v-430h-215v430h-430z" />
<glyph unicode="," horiz-adv-x="493" d="M27 -213l194 -90l215 463l-194 90z" />
<glyph unicode="-" horiz-adv-x="829" d="M92 432h645v215h-645v-215z" />
<glyph unicode="." horiz-adv-x="399" d="M74 106q0 53 36.5 89t88 36t87.5 -35.5t36 -89t-36 -88t-87 -34.5q-53 0 -89 35.5t-36 86.5z" />
<glyph unicode="/" horiz-adv-x="890" d="M27 55l643 1377l194 -91l-643 -1378z" />
<glyph unicode="0" horiz-adv-x="1126" d="M61 698q0 -305 133 -520t369 -215q162 0 280 110.5t170 273.5t52 351q0 195 -54.5 358t-171 270.5t-276.5 107.5q-164 0 -280.5 -110t-169 -272.5t-52.5 -353.5zM276 698.5q0 233.5 81 373.5t206 147q123 -6 205 -148.5t82 -372t-82 -375t-205 -145.5q-121 0 -204 143.5 t-83 377z" />
<glyph unicode="1" horiz-adv-x="645" d="M61 1182v215h431v-1397h-216v1182h-215z" />
<glyph unicode="2" horiz-adv-x="1030" d="M113 922v108q0 168 117.5 286t285.5 118t286 -118t118 -286q0 -125 -74 -231l-410 -584h484v-215h-746v215l496 707q35 47 35 108q0 76 -55.5 132.5t-133.5 56.5t-133 -55.5t-55 -133.5v-108h-215z" />
<glyph unicode="3" horiz-adv-x="942" d="M18 127l134 168q154 -119 235 -119q90 0 159.5 67.5t69.5 158t-68.5 158t-160.5 65.5h-108v215h108q86 0 150.5 54t64.5 134q0 78 -66.5 133.5t-150.5 55.5q-82 0 -229 -117l-133 170q205 162 364 162q170 0 300 -118t130 -286q0 -178 -139 -297q154 -131 153 -330 q0 -180 -134 -312t-310 -128q-152 0 -369 166z" />
<glyph unicode="4" horiz-adv-x="1091" d="M0 295l514 1102h238l-414 -887h266v465h215v-465h209v-215h-209v-295h-215v295h-604z" />
<glyph unicode="5" horiz-adv-x="989" d="M16 160l146 157q90 -82 143 -110.5t107 -28.5q104 0 177 74t73 178q0 102 -74 176t-176 74q-74 0 -136 -39l-172 14l64 742h635v-215h-438l-25 -291q45 4 72 4q193 0 329 -136t136 -328.5t-136 -330t-329 -137.5q-96 0 -186.5 44t-209.5 153z" />
<glyph unicode="6" horiz-adv-x="1157" d="M113 428q0 102 41 190q174 365 587 826l160 -144q-211 -231 -332 -405q201 0 338 -137t137 -330q0 -190 -136 -327.5t-328 -137.5h-2q-193 0 -329 136.5t-136 328.5zM328 428q0 -102 73.5 -176t176.5 -74q104 0 177.5 73t73.5 177t-72.5 178t-179 74t-178 -76t-71.5 -176 z" />
<glyph unicode="7" horiz-adv-x="1017" d="M61 1182v215h961l-655 -1397h-240l555 1182h-621z" />
<glyph unicode="8" horiz-adv-x="1120" d="M113 410q0 209 168 350q-115 119 -115 278q0 164 115.5 280t279.5 116q162 0 277.5 -116t115.5 -280q0 -160 -114 -278q168 -137 168 -350q0 -186 -130 -317.5t-317 -131.5q-188 0 -318 130.5t-130 318.5zM328 410q0 -98 67.5 -166t165.5 -68q96 0 164 68.5t68 165.5 q0 94 -69 162.5t-163 68.5q-98 0 -165.5 -67.5t-67.5 -163.5zM381 1038.5q0 -73.5 52 -126t128 -52.5q74 0 126 52.5t52 125.5q0 76 -52 128.5t-126 52.5q-76 0 -128 -53.5t-52 -127z" />
<glyph unicode="9" horiz-adv-x="1157" d="M113 971q0 190 136 327.5t329 137.5h2q193 0 328.5 -136.5t135.5 -328.5q0 -102 -40 -191q-174 -365 -588 -825l-160 143q211 231 332 406q-201 0 -338 137t-137 330zM328 970.5q0 -104.5 72.5 -178t179 -73.5t178 75.5t71.5 176.5q0 102 -73.5 176t-175.5 74 q-104 0 -178 -73t-74 -177.5z" />
<glyph unicode=":" horiz-adv-x="399" d="M76 106q0 53 36 89t89 36q51 0 87 -35.5t36 -89t-35 -88t-88.5 -34.5t-89 35.5t-35.5 86.5zM76 807q0 53 36 89t89 36q51 0 87 -36t36 -89t-35 -88t-88.5 -35t-89 36t-35.5 87z" />
<glyph unicode=";" horiz-adv-x="462" d="M27 -213l194 -90l215 463l-194 90zM188 809q0 51 37 88t88.5 37t87 -36t35.5 -89q0 -51 -35.5 -87t-87.5 -36q-53 0 -89 36t-36 87z" />
<glyph unicode="&#x3c;" horiz-adv-x="1259" d="M-55 539l1165 -545l92 196l-98 46l-651 303l749 348l-92 196z" />
<glyph unicode="=" horiz-adv-x="1226" d="M111 199h1005v215h-1005v-215zM111 666h1005v215h-1005v-215z" />
<glyph unicode="&#x3e;" horiz-adv-x="1259" d="M55 190l99 46l651 303l-750 348l92 196l1166 -544l-1166 -545z" />
<glyph unicode="?" horiz-adv-x="935" d="M49 1274l86 65q121 98 279 95q162 0 296 -111t134 -291q0 -137 -91 -247.5t-235 -143.5v-227h-215v321v90l107 19q94 16 156.5 65t62.5 123q0 82 -67.5 134.5t-149.5 52.5q-78 4 -146 -48l-84 -67zM287 108.5q0 51.5 36.5 88t88 36.5t87.5 -35.5t36 -88.5q0 -51 -36 -87 t-87 -36q-53 0 -89 35.5t-36 87z" />
<glyph unicode="@" horiz-adv-x="1705" d="M154 696q0 291 204.5 496t493.5 205q291 0 495.5 -205t204.5 -496q0 -160 -89 -285.5t-230 -125.5q-170 -1 -236 198h-258l-41 -155h-166l209 774h256l136 -514q18 -63 37.5 -97t30.5 -39.5t28 -5.5q61 0 111.5 69t50.5 181q0 225 -157 382t-382 157q-227 0 -381 -162 t-154 -375q0 -215 154 -376.5t381 -161.5q94 0 258 63l57 -151q-27 -10 -70.5 -25.5t-61 -21t-49.5 -13.5t-61.5 -10t-72.5 -2v-2q-289 0 -493.5 205t-204.5 493zM784 645h166l-84 311z" />
<glyph unicode="A" d="M16 0l508 1397h260l508 -1397h-227l-113 307h-596l-110 -307h-230zM434 522h438l-219 602z" />
<glyph unicode="B" horiz-adv-x="1228" d="M154 0v1397h501q168 0 286 -117t118 -285q0 -141 -84 -247q90 -57 141 -147.5t51 -197.5q0 -166 -118.5 -284.5t-284.5 -118.5h-610zM369 215h395q78 0 133 55.5t55 133t-55 133t-133 55.5h-395v-377zM369 807h286q78 0 133.5 54t55.5 134q0 78 -54.5 132.5t-134.5 54.5 h-286v-375z" />
<glyph unicode="C" horiz-adv-x="1204" d="M63 698v-15q1 -287 219 -505q215 -213 492 -213h25q150 0 379 96l-82 199q-195 -80 -297 -80h-20q-195 0 -346 150q-154 154 -154 355v13v20q1 195 151 346q155 155 357 155h10q109 0 299 -80l82 198q-231 96 -381 97h-15q-288 0 -506 -218q-214 -215 -213 -493v-25z" />
<glyph unicode="D" horiz-adv-x="1343" d="M154 0v2v2v2v2v2v2v2v2v2v2v3v2v2v2v2v2v2v2v2v2v2v2v2v2v2v2v2v2v2v2v2v3v2v2v2v2v2v2v2v2v2v2v2v2v2v2v2v2v2v2v2v2v3v2v2v2v2v2v2v2v2v2v2v2v2v2v2v2v2v2v2v2v3v2v2v2v2v2v2v2v2v2v2v2v2v2v2v2v2v2v2v2v2v3v2v2v2v2v2v2v2v2v2v2v2v2v2v2v2v2v2v2v2v5v2v2v2v2v2v2v2v2 v2v2v2v2v2v2v2v2v2v4v2v3v2v2v2v2v2v2v2v4v2v2v2v2v2v2v2v4v2v2v3v2v2v2v4v2v2v2v2v4v2v2v2v2v2v4v2v2v3v2v4v2v2v2v2v4v2v2v2v4v2v2v2v4v3v2v2v4v2v2v2v4v2v2v2v4v2v2v4v2v2v3v4v2v2v4v2v2v4v2v2v2v4v2v2v4v2v3v4v2v2v4v2v2v4v2v4v2v2v4v2v2v5v2v2v4v2v4v2v2v4v2v4v2v2v4v2 v5v2v2v4v2v4v2v2v4v2v4v2v4v2v2v5v2v4v2v4v2v4v2v2v4v2v4v2v4v3v4v2v4v2v4v2v4v2v4v2v4v2v4v3v4v2v4v2v4v2v4v2v4v2v4v2v4v3v4v2v4v4v2v4v2v4v2v4v2v4v5v2v4v2v4v2v4v2v4v4v2v4v2v4v5v2v4v2v4v4v2v4v2v4v4v2v4v3v4v4v2v4v4v2v4v2v4v4v2v5v4v2v4v4v2v4v4v2v4v2v4v4v3v4v4v2v4 v4v4v2v4v4v2v4v5v2v4v4v2v4v4v4v2v4v4v2v4v5v4v2v4v4v2v4v4v4v2v4v4v5v2v4v4v4v2v4v4v4v2v4v4v5v2v4v4v4v4v2v4v4v4v2v5v4v4v4v2v4v4v4v4v2v4v4v5v4v4v2v4v4v4v4v2v4v4v5v4v4v4v2v4v4v4v4v4v2v4v5v4v4v4v4v4v2v4v4v4v4v5v4v4v2v4v4v4v4v4v19h430q289 0 493.5 -205 t204.5 -493.5t-205 -493.5t-493 -205h-430zM369 215h215q201 0 343 142q140 140 140 335v6q0 203 -141.5 343.5t-341.5 140.5h-215v-967z" />
<glyph unicode="E" horiz-adv-x="983" d="M154 0v1397h716v-215h-501v-377h501v-215h-501v-375h501v-215h-716z" />
<glyph unicode="F" horiz-adv-x="983" d="M154 0v1397h714v-215h-499v-377h499v-215h-499v-590h-215z" />
<glyph unicode="G" horiz-adv-x="1458" d="M63 698v22q0 178 93 340q100 173 272 276q166 98 352 98h15q150 0 381 -97l-80 -198q-195 80 -301 80h-10q-203 0 -358 -155q-149 -149 -149 -339q0 -14 1 -27q0 -209 156.5 -364.5t359.5 -155.5q78 0 180 35t155 82v295h-442v215h658v-621q-70 -82 -222.5 -151.5 t-328.5 -69.5q-285 0 -508.5 225.5t-223.5 509.5z" />
<glyph unicode="H" horiz-adv-x="1382" d="M154 0v1397h215v-592h645v592h215v-1397h-215v590h-645v-590h-215z" />
<glyph unicode="I" horiz-adv-x="522" d="M154 0v1397h215v-1397h-215z" />
<glyph unicode="J" horiz-adv-x="765" d="M0 57l82 199l166 -70q29 -8 41 -8q45 0 76.5 33t31.5 76v1110h215v-1110q0 -129 -94 -226.5t-229 -97.5q-63 0 -123 25z" />
<glyph unicode="K" horiz-adv-x="1202" d="M154 0v1397h217v-590h24l592 590h303l-698 -697l702 -700h-303l-596 592h-24v-592h-217z" />
<glyph unicode="L" horiz-adv-x="931" d="M154 0v1397h215v-1182h501v-215h-716z" />
<glyph unicode="M" horiz-adv-x="2068" d="M92 0l250 1397h283l409 -1127l410 1127h282l250 -1397h-219l-194 1098l-402 -1098h-254l-401 1098l-195 -1098h-219z" />
<glyph unicode="N" horiz-adv-x="1589" d="M154 0v1397h284l783 -1118v1118h215v-1397h-283l-784 1120v-1120h-215z" />
<glyph unicode="O" horiz-adv-x="1542" d="M61 705q0 -299 212 -518.5t497 -219.5t498 219.5t213 513.5q0 289 -214 512.5t-497 223.5q-281 0 -495 -223.5t-214 -507.5zM276 700.5q0 202.5 147.5 361.5t346.5 159t347.5 -158t148.5 -363q0 -203 -148.5 -360.5t-347.5 -157.5t-346.5 158t-147.5 360.5z" />
<glyph unicode="P" horiz-adv-x="1120" d="M154 0v1397h501q166 0 284 -118t120 -286q0 -168 -119 -285.5t-285 -117.5h-286v-590h-215zM369 805h286q78 0 132.5 55t56.5 133q0 78 -55.5 133.5t-133.5 55.5h-286v-377z" />
<glyph unicode="Q" horiz-adv-x="1640" d="M61 700q0 303 215.5 518.5t518.5 215.5q305 0 520 -216.5t215 -519.5q-1 -202 -103 -374l234 -197l-135 -164l-236 195q-207 -195 -495 -195q-303 0 -518.5 216t-215.5 521zM276 698q0 -215 152 -367.5t367 -152.5q184 0 329 119l-215 180l138 166l213 -178 q55 111 55 233q0 217 -152.5 369t-369.5 152q-215 0 -366 -153t-151 -368z" />
<glyph unicode="R" horiz-adv-x="1171" d="M154 0v1397h501q168 0 286 -117t118 -285q0 -164 -112.5 -280.5t-274.5 -122.5l495 -592h-278l-498 592h-22v-592h-215zM369 807h286q78 0 133.5 55.5t55.5 133t-55.5 132t-133.5 54.5h-286v-375z" />
<glyph unicode="S" horiz-adv-x="1069" d="M61 125l95 192q23 -10 74 -34.5t72.5 -34.5t63.5 -26.5t70.5 -24t68.5 -13.5t81 -6q86 0 146.5 60.5t60.5 146.5q0 66 -38 119t-100 76l-288 106q-113 41 -183.5 140.5t-70.5 220.5q0 160 112.5 272.5t272.5 112.5q29 0 59.5 -3.5t65 -10.5t58.5 -12t61.5 -17.5t54 -17.5 t56.5 -19.5t46 -16.5l-74 -202q-12 4 -76.5 27.5t-89 30.5t-72.5 16.5t-89 9.5q-70 0 -120 -50.5t-50 -119.5q0 -53 31.5 -96.5t80.5 -63.5l289 -105q125 -47 202 -155.5t77 -241.5q0 -176 -125 -299t-299 -123q-233 0 -523 162z" />
<glyph unicode="T" horiz-adv-x="1054" d="M61 1182v215h932v-215h-358v-1182h-215v1182h-359z" />
<glyph unicode="U" horiz-adv-x="1382" d="M154 500v897h215v-897q0 -133 95 -227.5t228 -94.5t227.5 94.5t94.5 227.5v897h215v-897q0 -223 -158 -380t-379 -157t-379.5 156.5t-158.5 380.5z" />
<glyph unicode="V" d="M16 1397h228l411 -1125l408 1125h229l-508 -1397h-260z" />
<glyph unicode="W" horiz-adv-x="1865" d="M92 1397h219l191 -1080l289 1080h286l289 -1080l188 1080h222l-246 -1397h-301l-295 1100l-295 -1100h-301z" />
<glyph unicode="X" horiz-adv-x="1200" d="M-37 0l506 723l-469 674h260l340 -486l340 486h260l-469 -674l508 -723h-262l-377 537l-375 -537h-262z" />
<glyph unicode="Y" horiz-adv-x="1165" d="M-37 1397h262l357 -512l358 512h262l-514 -733v-664h-213v664z" />
<glyph unicode="Z" horiz-adv-x="1167" d="M-35 0l826 1182h-689v215h1100l-825 -1182h688v-215h-1100z" />
<glyph unicode="[" horiz-adv-x="645" d="M154 -430h430v215h-215v1827h215v215h-430v-2257z" />
<glyph unicode="\" horiz-adv-x="890" d="M29 1341l643 -1378l194 92l-643 1377z" />
<glyph unicode="]" horiz-adv-x="645" d="M61 -215h215v1827h-215v215h431v-2257h-431v215z" />
<glyph unicode="^" horiz-adv-x="1112" d="M23 1133l487 845l489 -845l-186 -109l-303 524l-248 -430l-53 -94z" />
<glyph unicode="_" horiz-adv-x="1003" d="M0 0v-215h1004v215h-1004z" />
<glyph unicode="`" horiz-adv-x="499" d="M0 1710l90 195l410 -191l-90 -194z" />
<glyph unicode="{" horiz-adv-x="776" d="M61 592l2 215h107q47 0 80 31.5t33 79.5v583q2 135 96 231.5t229 96.5h109v-215h-109q-45 0 -77.5 -33t-32.5 -80v-583q0 -125 -84 -220q84 -94 84 -219v-583q0 -45 32.5 -78t77.5 -33h109v-215h-109q-135 0 -229 95t-96 231v583q0 47 -33 80t-80 33h-109z" />
<glyph unicode="|" horiz-adv-x="524" d="M154 -213h215v1825h-215v-1825z" />
<glyph unicode="}" horiz-adv-x="776" d="M61 -215v-215h109q135 0 229.5 95t96.5 231v583q0 47 32.5 80t79.5 33h109l-2 215h-107q-47 0 -79.5 31.5t-32.5 79.5v583q-2 135 -96.5 231.5t-229.5 96.5h-109v-215h109q45 0 78 -33t33 -80v-583q0 -125 84 -220q-84 -94 -84 -219v-583q0 -45 -33 -78t-78 -33h-109z " />
<glyph unicode="~" horiz-adv-x="1294" d="M72 461l180 -117q74 111 105.5 144.5t70.5 33.5q27 2 168 -76q8 -4 49 -28.5t64.5 -35.5t68.5 -23.5t88 -12.5q92 0 170 58.5t187 218.5l-181 116q-72 -109 -103.5 -142.5t-72.5 -35.5q-14 0 -34.5 7t-35 14.5t-48 27t-50.5 27.5q-4 2 -47 26.5t-66.5 36t-68.5 24.5 t-88 13q-102 0 -173 -55t-183 -221z" />
<glyph unicode="&#xa1;" horiz-adv-x="399" d="M78 1075q0 51 34.5 87t88 36t89.5 -36t36 -87t-36 -88t-89 -37q-51 0 -87 36t-36 89zM92 -215h215v989h-215v-989z" />
<glyph unicode="&#xa2;" horiz-adv-x="1038" d="M61 641q0 219 132.5 398.5t345.5 228.5v157h161v-141q141 -8 310 -94l-86 -197q-129 70 -224 74v-850q92 4 224 74l86 -199q-174 -84 -310 -92v-141h-161v157q-203 47 -341.5 227.5t-136.5 397.5zM276 641q0 -131 74 -242.5t189 -156.5v800q-119 -45 -192 -157.5 t-71 -243.5z" />
<glyph unicode="&#xa3;" horiz-adv-x="1122" d="M61 594v162h187q-88 164 -88 272q0 168 121.5 268.5t291.5 100.5q147 2 269.5 -91.5t181.5 -238.5l2 -2l39 -98l-199 -82l-41 100q-82 197 -252 197q-90 0 -144 -38t-54 -116q0 -45 20.5 -90t53 -98.5t47.5 -83.5h-2h288v-162h-241q6 -188 -109 -379h631v-215h-922v172 q104 137 142.5 217t40.5 205h-263z" />
<glyph unicode="&#xa4;" horiz-adv-x="1300" d="M18 215l197 195q-86 129 -86 286q0 156 86 285l-197 197l154 151l195 -196q129 86 284 86q158 0 287 -86l197 196l151 -151l-194 -197q84 -131 84 -285q0 -155 -84 -286l194 -195l-151 -154l-197 197q-129 -86 -287 -86q-156 0 -284 86l-195 -197zM344 696 q0 -131 91 -220t216 -89q127 2 217 92t93 217q-4 127 -93.5 217.5t-216.5 90.5q-121 0 -214 -91.5t-93 -216.5z" />
<glyph unicode="&#xa5;" horiz-adv-x="1167" d="M-33 1397h262l357 -510l356 510h262l-428 -615h320v-159h-404v-162h404v-162h-404v-299h-215v299h-401v162h401v162h-401v159h319z" />
<glyph unicode="&#xa6;" horiz-adv-x="524" d="M154 -215h215v811h-215v-811zM154 801h215v811h-215v-811z" />
<glyph unicode="&#xa7;" horiz-adv-x="1013" d="M61 584q0 170 117 290q-37 74 -37 160q0 152 106.5 257.5t256.5 105.5q80 0 163 -29t244 -106l-96 -195q-39 18 -89 43t-69.5 34t-47 20.5t-46 14.5t-43.5 3q-70 0 -117 -40t-47 -108q0 -90 82 -131l277 -139q109 -55 173 -155.5t62 -223.5q0 -166 -116 -293 q37 -72 36 -158q0 -154 -104 -258t-256 -104q-82 0 -156.5 25.5t-251.5 109.5l95 193q139 -68 190 -87.5t107 -25.5q66 0 110.5 34t50.5 95q0 100 -82 150l-276 137q-104 53 -170 156.5t-66 224.5zM276 584q0 -59 33 -110.5t84 -78.5l293 -145q41 46 49 112q0 156 -117 209 l-292 148q-49 -59 -50 -135z" />
<glyph unicode="&#xa8;" horiz-adv-x="823" d="M45 1663q0 53 35 88t88 35t89 -36t36 -87q0 -53 -36 -89t-89 -36q-51 0 -87 36t-36 89zM530 1663q0 53 36 88t87 35q53 0 89 -36t36 -87q0 -53 -36.5 -89t-88 -36t-87.5 36t-36 89z" />
<glyph unicode="&#xa9;" horiz-adv-x="1595" d="M61 690q0 297 219.5 515t516.5 218q287 0 511 -220t224 -513q0 -188 -96.5 -356t-266.5 -272.5t-372 -106.5q-309 0 -522.5 221t-213.5 514zM276 688q0 -209 159 -363.5t361.5 -154.5t361.5 155.5t159 364.5t-158 363.5t-362 154.5q-211 0 -366 -154.5t-155 -365.5z M389 688q0 164 123 287t287 123q76 0 231 -64l-63 -149q-119 51 -168 51q-102 0 -176 -74t-72 -174q0 -100 73.5 -173t174.5 -73q47 0 168 47l63 -149q-154 -59 -231 -59q-162 -6 -286 117.5t-124 289.5z" />
<glyph unicode="&#xab;" horiz-adv-x="1017" d="M68 539l330 -473l176 124l-244 349l244 348l-176 125zM459 539l330 -473l176 124l-244 349l244 348l-176 125z" />
<glyph unicode="&#xad;" horiz-adv-x="829" d="M92 432h645v215h-645v-215z" />
<glyph unicode="&#xae;" horiz-adv-x="1595" d="M63 698q-10 190 94.5 362.5t278.5 273t363 98.5q184 2 354 -98.5t274.5 -273t104.5 -362.5q0 -291 -215 -513t-518 -222q-313 2 -524.5 222.5t-211.5 512.5zM279 698q0 -209 158.5 -364.5t361 -155.5t360.5 155.5t158 364.5q0 211 -153.5 365t-364.5 154t-365.5 -154 t-154.5 -365zM563 307v780h287q96 0 165.5 -70.5t69.5 -164.5q0 -82 -51 -145.5t-129 -83.5l176 -211l-123 -105l-235 281v-281h-160zM723 778h127q31 0 52.5 22.5t21.5 51.5q0 31 -22.5 52.5t-51.5 21.5h-127v-148z" />
<glyph unicode="&#xb0;" horiz-adv-x="798" d="M113 1110q0 -119 84 -203t202 -84q117 0 202 83t85 204t-85 204t-202 83q-119 0 -202.5 -84t-83.5 -203zM272 1110q0 51 38 88t89.5 37t88 -36t36.5 -89q0 -51 -36.5 -88t-88 -37t-89.5 36t-38 89z" />
<glyph unicode="&#xb4;" horiz-adv-x="499" d="M0 1714l90 -194l410 190l-90 195z" />
<glyph unicode="&#xb6;" horiz-adv-x="1040" d="M61 1052.5q0 143.5 100.5 244t244.5 100.5h573v-1825h-215v1610h-146v-1610h-215v1137q-143 0 -242.5 100t-99.5 243.5z" />
<glyph unicode="&#xb7;" horiz-adv-x="399" d="M76 539q0 51 35.5 87t87.5 36q53 0 89 -36t36 -87.5t-37 -88t-88.5 -36.5t-87 35.5t-35.5 89.5z" />
<glyph unicode="&#xbb;" horiz-adv-x="1017" d="M51 190l244 349l-244 348l176 125l330 -473l-330 -473zM442 190l244 349l-244 348l176 125l330 -473l-330 -473z" />
<glyph unicode="&#xbf;" horiz-adv-x="935" d="M92 186q0 137 91 248t235 144v227h215v-322v-90l-107 -18q-94 -16 -156.5 -65.5t-62.5 -123.5q0 -82 67.5 -134t149.5 -52q78 -4 146 47l84 68l133 -170l-86 -66q-121 -98 -279 -94q-162 0 -296 110.5t-134 290.5zM401 1110q0 53 35 88t88.5 35t89 -36t35.5 -87 q0 -53 -36 -89t-89 -36q-51 0 -87 36t-36 89z" />
<glyph unicode="&#xc0;" d="M16 0l508 1397h260l508 -1397h-227l-113 307h-596l-110 -307h-230zM403 1710l90 195l410 -191l-90 -194zM434 522h438l-219 602z" />
<glyph unicode="&#xc1;" d="M16 0l508 1397h260l508 -1397h-227l-113 307h-596l-110 -307h-230zM403 1714l90 -194l410 190l-90 195zM434 522h438l-219 602z" />
<glyph unicode="&#xc2;" d="M16 0l508 1397h260l508 -1397h-227l-113 307h-596l-110 -307h-230zM295 1714l358 166l358 -166l-90 -194l-268 125l-268 -125zM434 522h438l-219 602z" />
<glyph unicode="&#xc3;" d="M16 0l508 1397h260l508 -1397h-227l-113 307h-596l-110 -307h-230zM252 1630l41 99q29 72 91 113.5t140 41.5q86 0 191 -72q66 -43 84 -43q20 0 34 25l41 98l199 -84l-41 -98q-29 -72 -89 -114t-142 -42q-78 0 -191 72q-6 4 -20.5 14.5t-21.5 15.5t-18.5 9t-21.5 4 q-23 0 -37 -24l-43 -101zM434 522h438l-219 602z" />
<glyph unicode="&#xc4;" d="M16 0l508 1397h260l508 -1397h-227l-113 307h-596l-110 -307h-230zM287 1663q0 53 35 88t88 35t89 -36t36 -87q0 -53 -36 -89t-89 -36q-51 0 -87 36t-36 89zM434 522h438l-219 602zM772 1663q0 53 36 88t87 35q53 0 89 -36t36 -87q0 -53 -36.5 -89t-88 -36t-87.5 36 t-36 89z" />
<glyph unicode="&#xc5;" d="M16 0l508 1397h47q-74 27 -117.5 88t-43.5 141q0 102 71.5 173t172 71t172 -70.5t71.5 -173.5q0 -80 -45 -141.5t-117 -87.5h49l508 -1397h-227l-113 307h-596l-110 -307h-230zM434 522h438l-219 602zM571 1626q0 -33 25 -57.5t57 -24.5q35 0 58.5 24.5t23.5 57.5 t-24.5 57.5t-57.5 24.5q-35 0 -58.5 -24.5t-23.5 -57.5z" />
<glyph unicode="&#xc6;" horiz-adv-x="1787" d="M-16 0l804 1397h887v-215h-501v-375h501v-215h-501v-381l501 4v-215h-717v307h-550l-177 -307h-247zM532 522h426v660h-45z" />
<glyph unicode="&#xc7;" horiz-adv-x="1204" d="M61 694q0 293 208 514.5t524 221.5q170 0 381 -97l-84 -198q-172 80 -295 79q-229 0 -374 -159.5t-145 -372.5q0 -209 157 -357.5t360 -148.5q119 0 297 80l84 -199q-203 -92 -377 -96l-17 -82l178 -96v-141l-333 -154l-68 147l182 82l-133 72l29 191q-246 55 -410 253.5 t-164 460.5z" />
<glyph unicode="&#xc8;" horiz-adv-x="983" d="M154 0v1397h716v-215h-501v-377h501v-215h-501v-375h501v-215h-716zM262 1710l90 195l410 -191l-90 -194z" />
<glyph unicode="&#xc9;" horiz-adv-x="983" d="M154 0v1397h716v-215h-501v-377h501v-215h-501v-375h501v-215h-716zM260 1714l90 -194l410 190l-90 195z" />
<glyph unicode="&#xca;" horiz-adv-x="983" d="M154 0v1397h716v-215h-501v-377h501v-215h-501v-375h501v-215h-716zM154 1714l358 166l358 -166l-90 -194l-268 125l-268 -125z" />
<glyph unicode="&#xcb;" horiz-adv-x="983" d="M147 1663q0 53 35 88t88 35t89 -36t36 -87q0 -53 -36 -89t-89 -36q-51 0 -87 36t-36 89zM154 0v1397h716v-215h-501v-377h501v-215h-501v-375h501v-215h-716zM632 1663q0 53 36 88t87 35q53 0 89 -36t36 -87q0 -53 -36.5 -89t-88 -36t-87.5 36t-36 89z" />
<glyph unicode="&#xcc;" horiz-adv-x="522" d="M-131 1710l90 195l410 -191l-90 -194zM154 0v1397h215v-1397h-215z" />
<glyph unicode="&#xcd;" horiz-adv-x="522" d="M154 0v1397h215v-1397h-215zM154 1714l90 -194l410 190l-90 195z" />
<glyph unicode="&#xce;" horiz-adv-x="522" d="M-96 1714l358 166l358 -166l-90 -194l-268 125l-268 -125zM154 0v1397h215v-1397h-215z" />
<glyph unicode="&#xcf;" horiz-adv-x="524" d="M-104 1663q0 53 35.5 88t86.5 35q53 0 89 -36t36 -87q0 -53 -36.5 -89t-88 -36t-87 36t-35.5 89zM154 0v1397h215v-1397h-215zM381 1663q0 53 35 88t88 35t89 -36t36 -87q0 -53 -36 -89t-89 -36q-51 0 -87 36t-36 89z" />
<glyph unicode="&#xd0;" horiz-adv-x="1476" d="M61 618v162h224v617h430q289 0 493.5 -205t204.5 -493.5t-204.5 -493.5t-493.5 -205h-430v618h-224zM500 215h215q201 0 343 142t140 341q0 203 -141.5 343.5t-341.5 140.5h-215v-402h307v-162h-307v-403z" />
<glyph unicode="&#xd1;" horiz-adv-x="1589" d="M154 0v1397h284l783 -1118v1118h215v-1397h-283l-784 1120v-1120h-215zM444 1630l41 99q29 72 91.5 113.5t140.5 41.5q86 0 190 -72q63 -43 84 -43t35 25l41 98l199 -84l-41 -98q-29 -72 -89.5 -114t-142.5 -42q-78 0 -190 72q-6 4 -20.5 14.5t-21.5 15.5t-18.5 9 t-21.5 4q-23 0 -37 -24l-43 -101z" />
<glyph unicode="&#xd2;" horiz-adv-x="1542" d="M61 705q0 -299 212 -518.5t497 -219.5t498 219.5t213 513.5q0 289 -214 512.5t-497 223.5q-281 0 -495 -223.5t-214 -507.5zM276 700.5q0 202.5 147.5 361.5t346.5 159t347.5 -158t148.5 -363q0 -203 -148.5 -360.5t-347.5 -157.5t-346.5 158t-147.5 360.5zM410 1710 l90 195l410 -191l-90 -194z" />
<glyph unicode="&#xd3;" horiz-adv-x="1542" d="M61 705q0 -299 212 -518.5t497 -219.5t498 219.5t213 513.5q0 289 -214 512.5t-497 223.5q-281 0 -495 -223.5t-214 -507.5zM276 700.5q0 202.5 147.5 361.5t346.5 159t347.5 -158t148.5 -363q0 -203 -148.5 -360.5t-347.5 -157.5t-346.5 158t-147.5 360.5zM629 1714 l90 -194l410 190l-90 195z" />
<glyph unicode="&#xd4;" horiz-adv-x="1542" d="M61 705q0 -299 212 -518.5t497 -219.5t498 219.5t213 513.5q0 289 -214 512.5t-497 223.5q-281 0 -495 -223.5t-214 -507.5zM276 700.5q0 202.5 147.5 361.5t346.5 159t347.5 -158t148.5 -363q0 -203 -148.5 -360.5t-347.5 -157.5t-346.5 158t-147.5 360.5zM412 1714 l358 166l358 -166l-90 -194l-268 125l-268 -125z" />
<glyph unicode="&#xd5;" horiz-adv-x="1542" d="M61 705q0 -299 212 -518.5t497 -219.5t498 219.5t213 513.5q0 289 -214 512.5t-497 223.5q-281 0 -495 -223.5t-214 -507.5zM276 700.5q0 202.5 147.5 361.5t346.5 159t347.5 -158t148.5 -363q0 -203 -148.5 -360.5t-347.5 -157.5t-346.5 158t-147.5 360.5zM348 1630 l41 99q29 72 91 113.5t140 41.5q86 0 191 -72q66 -43 84 -43q20 0 34 25l41 98l199 -84l-41 -98q-29 -72 -89 -114t-142 -42q-78 0 -191 72q-6 4 -20.5 14.5t-21.5 15.5t-18.5 9t-21.5 4q-23 0 -37 -24l-43 -101z" />
<glyph unicode="&#xd6;" horiz-adv-x="1542" d="M61 705q0 -299 212 -518.5t497 -219.5t498 219.5t213 513.5q0 289 -214 512.5t-497 223.5q-281 0 -495 -223.5t-214 -507.5zM276 700.5q0 202.5 147.5 361.5t346.5 159t347.5 -158t148.5 -363q0 -203 -148.5 -360.5t-347.5 -157.5t-346.5 158t-147.5 360.5zM397 1663 q0 53 35 88t88 35t89 -36t36 -87q0 -53 -36 -89t-89 -36q-51 0 -87 36t-36 89zM882 1663q0 53 36 88t87 35q53 0 89 -36t36 -87q0 -53 -36.5 -89t-88 -36t-87.5 36t-36 89z" />
<glyph unicode="&#xd7;" horiz-adv-x="1388" d="M111 106l432 433l-432 434l151 151l432 -434l434 434l152 -151l-434 -434l434 -433l-152 -153l-434 434l-432 -434z" />
<glyph unicode="&#xd8;" horiz-adv-x="1593" d="M61 705q4 297 221.5 515t514.5 218q256 0 458 -162l134 133l114 -115l-133 -131q162 -201 162 -461q0 -188 -99.5 -362t-271.5 -278.5t-364 -94.5q-256 0 -459 162v2l-133 -133l-113 115l131 131q-162 203 -162 461zM276 702q4 -172 101 -305l727 725q-137 100 -307 101 q-207 0 -369 -157t-152 -364zM492 283q133 -100 305 -101q203 0 365.5 158.5t154.5 361.5q0 170 -100 308z" />
<glyph unicode="&#xd9;" horiz-adv-x="1382" d="M154 500v897h215v-897q0 -133 95 -227.5t228 -94.5t227.5 94.5t94.5 227.5v897h215v-897q0 -223 -158 -380t-379 -157t-379.5 156.5t-158.5 380.5zM440 1710l90 195l410 -191l-90 -194z" />
<glyph unicode="&#xda;" horiz-adv-x="1382" d="M154 500v897h215v-897q0 -133 95 -227.5t228 -94.5t227.5 94.5t94.5 227.5v897h215v-897q0 -223 -158 -380t-379 -157t-379.5 156.5t-158.5 380.5zM442 1714l90 -194l410 190l-90 195z" />
<glyph unicode="&#xdb;" horiz-adv-x="1382" d="M154 500v897h215v-897q0 -133 95 -227.5t228 -94.5t227.5 94.5t94.5 227.5v897h215v-897q0 -223 -158 -380t-379 -157t-379.5 156.5t-158.5 380.5zM334 1714l358 166l358 -166l-90 -194l-268 125l-268 -125z" />
<glyph unicode="&#xdc;" horiz-adv-x="1382" d="M154 500v897h215v-897q0 -133 95 -227.5t228 -94.5t227.5 94.5t94.5 227.5v897h215v-897q0 -223 -158 -380t-379 -157t-379.5 156.5t-158.5 380.5zM326 1663q0 53 35.5 88t87.5 35q53 0 88.5 -36t35.5 -87q0 -53 -36.5 -89t-88 -36t-87 36t-35.5 89zM811 1663q0 53 35 88 t88 35t89 -36t36 -87q0 -53 -36 -89t-89 -36q-51 0 -87 36t-36 89z" />
<glyph unicode="&#xdd;" horiz-adv-x="1165" d="M-37 1397h262l357 -512l358 512h262l-514 -733v-664h-213v664zM442 1714l90 -194l410 190l-90 195z" />
<glyph unicode="&#xde;" horiz-adv-x="1120" d="M154 0v1397h215v-295h286q168 0 286 -118t118 -286q0 -166 -118 -283.5t-286 -117.5h-286v-297h-215zM369 512h286q78 0 133.5 55t55.5 131q0 80 -55.5 134.5t-133.5 54.5h-286v-375z" />
<glyph unicode="&#xdf;" horiz-adv-x="1177" d="M154 0v995q0 166 117.5 284t285.5 120h47q168 0 286 -118t118 -286q0 -141 -84 -247q90 -57 141 -147.5t51 -197.5q0 -168 -117.5 -285.5t-285.5 -117.5h-215v215h215q78 0 133 55.5t55 133t-56 134t-132 54.5h-215v215h106q78 0 133.5 55.5t55.5 133t-55.5 133 t-133.5 55.5h-47q-78 0 -134 -56.5t-54 -134.5v-993h-215z" />
<glyph unicode="&#xf7;" horiz-adv-x="1300" d="M113 432h1075v215h-1075v-215zM528 109q0 51 35 86.5t88.5 35.5t89 -35.5t35.5 -87t-36 -88t-89 -36.5q-51 0 -87 35.5t-36 89.5zM528 969q0 51 35 87t88.5 36t89 -36t35.5 -87t-36 -88t-89 -37q-51 0 -87 35.5t-36 89.5z" />
<glyph unicode="&#x152;" horiz-adv-x="2144" d="M61 698q0 297 219.5 516.5t516.5 219.5q303 0 518 -215v178h717v-215h-502v-377h502v-215h-502v-375h502v-215h-717v180q-213 -215 -518 -215q-297 0 -516.5 218t-219.5 515zM276 698q0 -211 155 -364.5t366 -153.5t364.5 153.5t153.5 364.5t-153.5 366t-364.5 155 t-366 -155t-155 -366z" />
<glyph unicode="&#x178;" horiz-adv-x="1165" d="M-37 1397h262l357 -512l358 512h262l-514 -733v-664h-213v664zM217 1663q0 53 35 88t88 35t89 -36t36 -87q0 -53 -36 -89t-89 -36q-51 0 -87 36t-36 89zM702 1663q0 53 36 88t87 35q53 0 89 -36t36 -87q0 -53 -36.5 -89t-88 -36t-87.5 36t-36 89z" />
<glyph unicode="&#x2c6;" horiz-adv-x="768" d="M25 1714l358 166l358 -166l-90 -194l-268 125l-268 -125z" />
<glyph unicode="&#x2dc;" horiz-adv-x="882" d="M31 1630l41 99q29 72 91 113.5t140 41.5q86 0 191 -72q66 -43 84 -43q20 0 34 25l41 98l199 -84l-41 -98q-29 -72 -89 -114t-142 -42q-78 0 -191 72q-6 4 -20.5 14.5t-21.5 15.5t-18.5 9t-21.5 4q-23 0 -37 -24l-43 -101z" />
<glyph unicode="&#x2000;" horiz-adv-x="989" />
<glyph unicode="&#x2001;" horiz-adv-x="1978" />
<glyph unicode="&#x2002;" horiz-adv-x="989" />
<glyph unicode="&#x2003;" horiz-adv-x="1978" />
<glyph unicode="&#x2004;" horiz-adv-x="659" />
<glyph unicode="&#x2005;" horiz-adv-x="494" />
<glyph unicode="&#x2006;" horiz-adv-x="329" />
<glyph unicode="&#x2007;" horiz-adv-x="329" />
<glyph unicode="&#x2008;" horiz-adv-x="247" />
<glyph unicode="&#x2009;" horiz-adv-x="395" />
<glyph unicode="&#x200a;" horiz-adv-x="109" />
<glyph unicode="&#x2010;" horiz-adv-x="829" d="M92 432h645v215h-645v-215z" />
<glyph unicode="&#x2011;" horiz-adv-x="829" d="M92 432h645v215h-645v-215z" />
<glyph unicode="&#x2012;" horiz-adv-x="829" d="M92 432h645v215h-645v-215z" />
<glyph unicode="&#x2013;" horiz-adv-x="913" d="M0 430h911v215h-911v-215z" />
<glyph unicode="&#x2014;" horiz-adv-x="1828" d="M0 428h1829v215h-1829v-215z" />
<glyph unicode="&#x2018;" horiz-adv-x="489" d="M29 1343l194 91l242 -519l-195 -90z" />
<glyph unicode="&#x2019;" horiz-adv-x="489" d="M27 915l194 -90l242 518l-195 91z" />
<glyph unicode="&#x201a;" horiz-adv-x="489" d="M27 -375l194 -90l242 518l-195 91z" />
<glyph unicode="&#x201c;" horiz-adv-x="841" d="M29 1343l194 91l242 -519l-195 -90zM381 1343l194 91l242 -519l-195 -90z" />
<glyph unicode="&#x201d;" horiz-adv-x="841" d="M27 915l194 -90l242 518l-195 91zM379 915l194 -90l242 518l-194 91z" />
<glyph unicode="&#x201e;" horiz-adv-x="841" d="M27 -375l194 -90l242 518l-195 91zM379 -375l194 -90l242 518l-194 91z" />
<glyph unicode="&#x2022;" horiz-adv-x="757" d="M92 539q0 121 85 203.5t202 82.5q121 0 204 -82.5t83 -203.5q0 -117 -83 -202t-204 -85q-117 0 -202 85t-85 202z" />
<glyph unicode="&#x202f;" horiz-adv-x="395" />
<glyph unicode="&#x2039;" horiz-adv-x="665" d="M88 539l330 -473l176 124l-244 349l244 348l-176 125z" />
<glyph unicode="&#x203a;" horiz-adv-x="624" d="M51 190l244 349l-244 348l176 125l330 -473l-330 -473z" />
<glyph unicode="&#x205f;" horiz-adv-x="494" />
<glyph unicode="&#x20ac;" horiz-adv-x="1351" d="M61 457v161h150q-8 100 2 162h-152v162h187q78 215 270.5 353.5t423.5 138.5q147 0 381 -97l-82 -198q-190 80 -299 80q-141 0 -272 -77t-187 -200h600v-162h-653q-16 -86 0 -162h653v-161h-600q68 -129 192 -203t267 -74q102 0 299 80l82 -199q-236 -96 -381 -96 q-231 -2 -422.5 133t-271.5 359h-187z" />
<glyph unicode="&#x2122;" horiz-adv-x="2170" d="M61 1235v162h662v-162h-250v-827h-162v827h-250zM793 408l174 989h209l282 -776l283 776h207l176 -989h-164l-133 753l-277 -753h-186l-274 753l-134 -753h-163z" />
<glyph unicode="&#x25fc;" horiz-adv-x="1392" d="M0 0v1393h1393v-1393h-1393z" />
</font>
</defs>
</svg>
